<svg width="593" height="65" viewBox="0 0 593 65" fill="none" xmlns="http://www.w3.org/2000/svg">
<path d="M53.8689 47.884C32.7191 41.655 17.564 45.1017 7.6469 50.168C6.29832 50.8574 5.23754 52.0035 4.59613 53.3905L0.558594 62.2192H15.245L19.8418 50.8491H43.7134L48.3101 62.2192H62.9883L58.1285 51.5966C57.3062 49.8026 55.752 48.4405 53.8689 47.884Z" fill="white"/>
<path d="M53.8685 47.8843C48.9429 46.4641 43.9021 45.401 38.7956 44.9193C33.6973 44.4293 28.5332 44.529 23.476 45.3097C20.9515 45.7166 18.4517 46.298 16.0094 47.0289C13.5671 47.793 11.1907 48.7398 8.88819 49.8527C8.3208 50.1434 7.72051 50.3926 7.2189 50.7331C6.70085 51.0736 6.24035 51.4889 5.84565 51.9623C5.45094 52.4357 5.12201 52.9673 4.8671 53.532L4.07768 55.3011L0.887118 62.369L0.558194 61.8541L15.2446 61.8126L14.8664 62.07L19.4795 50.7082L19.5782 50.4673H19.8331C27.7931 50.4756 35.7448 50.5338 43.7048 50.6002H43.8692L43.9268 50.758L48.4331 62.1697L48.2933 62.0783L62.9797 62.178L62.9304 62.2528L59.304 54.2712L58.3995 52.2779C58.1034 51.6052 57.7992 50.9407 57.3633 50.3594C56.5081 49.18 55.2665 48.2996 53.8685 47.8843ZM53.8685 47.8843C55.2665 48.2913 56.5164 49.1634 57.388 50.3344C57.8321 50.9158 58.1445 51.5886 58.4406 52.253L59.3616 54.2463L63.0291 62.2029L63.062 62.2777H62.9797L48.2933 62.3773H48.1946L48.1535 62.2777L43.4745 50.9408L43.7048 51.0986C35.7448 51.1733 27.7931 51.2231 19.8331 51.2314L20.1867 50.9906L15.6229 62.3773L15.5242 62.6348H15.2529L0.566417 62.585H-0.000976562L0.237493 62.07L3.50206 55.0353L4.32437 53.2829C4.61218 52.6766 4.974 52.0952 5.41804 51.5886C5.86209 51.0819 6.3637 50.6334 6.93109 50.2763C7.50671 49.9109 8.09877 49.6783 8.68261 49.3876C11.018 48.2913 13.4356 47.3777 15.9107 46.6468C18.3859 45.9409 20.9104 45.3927 23.4513 45.0273C28.5496 44.3213 33.7137 44.3296 38.8203 44.8279C43.9186 45.3429 48.9511 46.4392 53.8685 47.8843Z" fill="white"/>
<path d="M54.5016 43.6739L34.8813 0.80957H28.6646L8.41113 45.0692C18.2295 40.7338 33.5245 37.6276 54.5016 43.6739ZM31.8223 21.4652L39.3875 40.1192H24.257L31.8223 21.4652Z" fill="white"/>
<path d="M54.5023 43.6727L44.4619 22.2114C41.148 15.1103 37.8176 8.05065 34.5613 0.966118L34.882 1.17375L28.6653 1.19037L29.0025 0.974425L18.9127 23.1084L8.74078 45.2175L8.27206 44.7358C11.8984 43.166 15.6893 41.9701 19.5541 41.2309C23.4272 40.4751 27.3579 40.1096 31.2885 40.093C35.2191 40.0681 39.1498 40.4003 43.0311 41.0232C46.9206 41.6628 50.7115 42.5681 54.5023 43.6727ZM54.5023 43.6727C50.7361 42.6594 46.8631 41.8289 42.9982 41.2724C39.1169 40.7325 35.2027 40.5 31.305 40.5581C27.399 40.6246 23.5012 41.0398 19.6857 41.8289C15.862 42.6096 12.1451 43.8471 8.56809 45.3919L7.71289 45.7656L8.09938 44.9102L18.1809 22.7596L28.3446 0.650513L28.4433 0.43457H28.6818L34.8984 0.451178H35.1287L35.2274 0.658814C38.5084 7.85963 41.7236 15.0854 44.9388 22.2696L54.5023 43.6727Z" fill="white"/>
<path d="M31.8232 21.4644C33.0814 24.4543 34.4135 27.4775 35.7456 30.5754C37.086 33.665 38.4428 36.8128 39.7338 39.9689L39.9394 40.4838H39.3885L31.8232 40.5253L24.258 40.4838H23.707L23.9126 39.9689C25.1954 36.8045 26.5522 33.6567 27.9008 30.5754L31.8232 21.4644ZM31.8232 21.4644C30.5569 24.6869 29.3645 27.8928 28.1804 31.0073C27.0045 34.1384 25.8368 37.2032 24.5951 40.2596L24.2498 39.7446L31.815 39.7031L39.3803 39.7446L39.0349 40.2596C37.8014 37.2032 36.6337 34.1301 35.4496 31.0073C34.2819 27.8928 33.0896 24.6869 31.8232 21.4644Z" fill="white"/>
<path d="M184.355 57.17C181.189 55.3262 178.656 52.8429 176.756 49.7284C174.857 46.6138 173.903 43.1089 173.903 39.2137C173.903 35.3184 174.857 31.7969 176.756 28.6575C178.656 25.518 181.189 23.0264 184.355 21.1743C187.52 19.3305 190.974 18.4086 194.732 18.4086C196.262 18.4086 197.742 18.5664 199.164 18.8654C198.877 18.6827 198.597 18.5 198.301 18.3255C194.633 16.1744 190.579 15.0947 186.139 15.0947C181.756 15.0947 177.718 16.1744 174.026 18.3255C170.334 20.4766 167.374 23.3918 165.154 27.0628C162.933 30.7338 161.823 34.845 161.823 39.3881C161.823 43.9395 162.933 48.0341 165.154 51.6718C167.374 55.3096 170.334 58.2082 174.026 60.3593C177.718 62.5104 181.756 63.5901 186.139 63.5901C190.579 63.5901 194.633 62.5104 198.301 60.3593C198.868 60.0271 199.411 59.67 199.946 59.2962C198.284 59.7198 196.541 59.9357 194.732 59.9357C190.974 59.9357 187.512 59.0138 184.355 57.17Z" fill="white"/>
<path d="M184.353 57.1688C180.11 54.727 176.681 50.7903 175.003 46.1392C174.173 43.8054 173.811 41.3221 173.852 38.8471C173.877 36.372 174.305 33.897 175.201 31.5798C177.002 26.9537 180.497 23.0418 184.838 20.6748C189.172 18.2579 194.377 17.5852 199.229 18.5652L199.007 19.1133C195.38 16.7712 191.113 15.5503 186.828 15.4673C182.536 15.3427 178.227 16.3726 174.51 18.5154C170.777 20.6332 167.594 23.7146 165.391 27.4354C163.154 31.1313 162.11 35.4834 162.184 39.8188C162.225 44.1459 163.392 48.4813 165.769 52.1191C168.08 55.7901 171.394 58.7884 175.225 60.7983C179.049 62.8331 183.449 63.6969 187.766 63.4394C192.099 63.2401 196.359 61.77 199.928 59.2618L199.961 59.3365C197.346 59.9844 194.607 60.1173 191.943 59.7767C189.271 59.4362 186.672 58.5392 184.353 57.1688ZM184.353 57.1688C186.68 58.5226 189.279 59.403 191.943 59.7352C194.607 60.0591 197.329 59.9179 199.936 59.2535L200.158 59.1954L199.969 59.3282C196.4 61.8614 192.132 63.3564 187.774 63.6305C183.424 63.9461 178.959 63.1321 175.045 61.1222C171.13 59.1372 167.71 56.1223 165.292 52.4098C162.825 48.7222 161.509 44.2622 161.468 39.8188C161.361 35.3754 162.422 30.8572 164.716 27.0201C166.953 23.1747 170.242 19.9439 174.115 17.8011C177.972 15.6085 182.445 14.5786 186.845 14.7281C189.049 14.7862 191.252 15.1184 193.357 15.7746C195.463 16.4307 197.485 17.3858 199.319 18.6067L200.651 19.4954L199.097 19.1632C194.394 18.1499 189.303 18.723 185.019 21.0319C180.727 23.2993 177.232 27.1032 175.382 31.6546C174.469 33.9302 174 36.3886 173.967 38.8471C173.918 41.3055 174.272 43.7805 175.077 46.106C176.722 50.757 180.118 54.7104 184.353 57.1688Z" fill="white"/>
<path d="M202.147 23.7819C199.631 22.3866 196.909 21.689 193.99 21.689C191.071 21.689 188.349 22.3866 185.833 23.7819C183.678 24.9779 181.894 26.6307 180.48 28.7237C180.907 28.3997 181.368 28.1008 181.845 27.8267C183.703 26.7968 185.718 26.2819 187.88 26.2819C190.043 26.2819 192.058 26.7968 193.916 27.8267C195.775 28.8566 197.279 30.3432 198.422 32.2867C199.565 34.2302 200.133 36.5972 200.133 39.3878C200.133 42.1785 199.565 44.5455 198.422 46.4807C197.279 48.4241 195.783 49.8942 193.916 50.8909C192.058 51.8875 190.043 52.3941 187.88 52.3941C185.718 52.3941 183.703 51.8958 181.845 50.8909C181.327 50.6085 180.841 50.2846 180.381 49.9357C181.803 52.0951 183.621 53.7728 185.833 54.9605C188.349 56.3143 191.071 56.9871 193.99 56.9871C196.909 56.9871 199.631 56.3143 202.147 54.9605C204.664 53.6067 206.695 51.6217 208.241 48.9972C209.778 46.3727 210.551 43.1751 210.551 39.4045C210.551 35.6338 209.778 32.4362 208.241 29.8117C206.687 27.1872 204.655 25.1772 202.147 23.7819Z" fill="white"/>
<path d="M202.147 23.7813C200.362 22.8012 198.405 22.1451 196.399 21.8793C194.392 21.6136 192.337 21.68 190.363 22.1119C188.39 22.5438 186.49 23.3577 184.804 24.4789C183.119 25.6002 181.688 27.0951 180.569 28.7895L180.413 28.64C184.163 25.7248 189.59 25.2929 193.809 27.5187C195.938 28.5984 197.69 30.3758 198.849 32.4771C200.025 34.595 200.461 37.0451 200.478 39.4287C200.486 41.8124 200.066 44.2708 198.891 46.4136C197.739 48.5314 195.963 50.342 193.8 51.4217C189.508 53.6393 184.007 53.224 180.15 50.2673L180.693 49.7523C183.406 54.0463 188.398 56.5296 193.414 56.704C198.43 56.9449 203.643 54.8768 206.801 50.8321C208.405 48.8388 209.515 46.4634 210.025 43.9386C210.543 41.422 210.608 38.7975 210.296 36.2477C209.745 31.0901 206.653 26.2729 202.147 23.7813ZM202.147 23.7813C206.678 26.2397 209.811 31.0485 210.395 36.2145C210.724 38.7809 210.691 41.4054 210.214 43.9635C209.745 46.5215 208.651 48.9716 207.056 51.0231C203.898 55.2173 198.57 57.4515 193.389 57.2937C190.791 57.2355 188.176 56.6126 185.857 55.3917C183.513 54.2041 181.499 52.3603 180.051 50.1593L178.826 48.2989L180.594 49.6444C184.212 52.3935 189.401 52.7257 193.43 50.6992C195.462 49.7025 197.123 48.0414 198.224 46.0398C199.335 44.0548 199.754 41.721 199.762 39.4204C199.779 37.1198 199.409 34.7777 198.323 32.7511C197.246 30.7246 195.601 28.9971 193.578 27.9257C189.557 25.7164 184.253 26.0154 180.528 28.8144L179.994 29.213L180.372 28.6649C181.532 26.9706 183.012 25.4922 184.722 24.3793C186.433 23.2664 188.34 22.4607 190.33 22.0371C192.32 21.6136 194.384 21.5637 196.391 21.8378C198.414 22.1202 200.371 22.7846 202.147 23.7813Z" fill="white"/>
<path d="M323.891 57.17C320.725 55.3262 318.192 52.8429 316.293 49.7284C314.393 46.6138 313.439 43.1089 313.439 39.2137C313.439 35.3184 314.393 31.7969 316.293 28.6575C318.192 25.518 320.725 23.0264 323.891 21.1743C327.057 19.3305 330.51 18.4086 334.268 18.4086C335.798 18.4086 337.278 18.5664 338.7 18.8654C338.413 18.6827 338.133 18.5 337.837 18.3255C334.17 16.1744 330.116 15.0947 325.675 15.0947C321.292 15.0947 317.255 16.1744 313.562 18.3255C309.87 20.4766 306.91 23.3918 304.69 27.0628C302.469 30.7338 301.359 34.845 301.359 39.3881C301.359 43.9395 302.469 48.0341 304.69 51.6718C306.91 55.3096 309.87 58.2082 313.562 60.3593C317.255 62.5104 321.292 63.5901 325.675 63.5901C330.116 63.5901 334.17 62.5104 337.837 60.3593C338.404 60.0271 338.947 59.67 339.482 59.2962C337.821 59.7198 336.077 59.9357 334.268 59.9357C330.51 59.9357 327.057 59.0138 323.891 57.17Z" fill="white"/>
<path d="M323.89 57.1688C319.647 54.727 316.218 50.7903 314.541 46.1392C313.718 43.8054 313.348 41.3221 313.389 38.8471C313.414 36.372 313.842 33.897 314.738 31.5798C316.539 26.9537 320.034 23.0418 324.375 20.6748C328.709 18.2579 333.914 17.5852 338.766 18.5652L338.544 19.1133C334.917 16.7712 330.65 15.5503 326.365 15.4673C322.073 15.3427 317.764 16.3726 314.047 18.5154C310.314 20.6332 307.132 23.7146 304.928 27.4354C302.691 31.1313 301.647 35.4834 301.721 39.8188C301.762 44.1459 302.93 48.4813 305.306 52.1191C307.617 55.7901 310.931 58.7884 314.763 60.7983C318.586 62.8331 322.986 63.6969 327.303 63.4394C331.636 63.2401 335.896 61.77 339.465 59.2618L339.498 59.3365C336.883 59.9844 334.144 60.1173 331.48 59.7767C328.808 59.4362 326.209 58.5392 323.89 57.1688ZM323.89 57.1688C326.217 58.5226 328.816 59.403 331.48 59.7352C334.144 60.0591 336.866 59.9179 339.473 59.2535L339.695 59.1954L339.506 59.3282C335.937 61.8614 331.669 63.3564 327.311 63.6305C322.961 63.9461 318.496 63.1321 314.582 61.1222C310.668 59.1372 307.247 56.1223 304.829 52.4098C302.362 48.7222 301.046 44.2622 301.005 39.8188C300.898 35.3754 301.959 30.8572 304.254 27.0201C306.49 23.1747 309.779 19.9439 313.652 17.8011C317.509 15.6085 321.982 14.5786 326.382 14.7281C328.586 14.7862 330.789 15.1184 332.895 15.7746C335 16.4307 337.022 17.3858 338.856 18.6067L340.188 19.4954L338.634 19.1632C333.922 18.1499 328.841 18.723 324.556 21.0319C320.264 23.2993 316.769 27.1032 314.919 31.6546C314.006 33.9302 313.537 36.3886 313.504 38.8471C313.455 41.3055 313.809 43.7805 314.615 46.106C316.259 50.757 319.655 54.7104 323.89 57.1688Z" fill="white"/>
<path d="M341.685 23.7819C339.169 22.3866 336.447 21.689 333.528 21.689C330.609 21.689 327.887 22.3866 325.371 23.7819C323.216 24.9779 321.432 26.6307 320.018 28.7237C320.445 28.3997 320.906 28.1008 321.383 27.8267C323.241 26.7968 325.256 26.2819 327.418 26.2819C329.581 26.2819 331.596 26.7968 333.454 27.8267C335.313 28.8566 336.817 30.3432 337.96 32.2867C339.103 34.2302 339.671 36.5972 339.671 39.3878C339.671 42.1785 339.103 44.5455 337.96 46.4807C336.817 48.4241 335.321 49.8942 333.454 50.8909C331.596 51.8875 329.581 52.3941 327.418 52.3941C325.256 52.3941 323.241 51.8958 321.383 50.8909C320.865 50.6085 320.379 50.2846 319.919 49.9357C321.342 52.0951 323.159 53.7728 325.371 54.9605C327.887 56.3143 330.609 56.9871 333.528 56.9871C336.447 56.9871 339.169 56.3143 341.685 54.9605C344.202 53.6067 346.233 51.6217 347.779 48.9972C349.317 46.3727 350.089 43.1751 350.089 39.4045C350.089 35.6338 349.317 32.4362 347.779 29.8117C346.225 27.1872 344.194 25.1772 341.685 23.7819Z" fill="white"/>
<path d="M341.686 23.7813C339.902 22.8012 337.944 22.1451 335.938 21.8793C333.932 21.6136 331.876 21.68 329.902 22.1119C327.929 22.5438 326.029 23.3577 324.343 24.4789C322.658 25.6002 321.227 27.0951 320.109 28.7895L319.952 28.64C323.702 25.7248 329.129 25.2929 333.348 27.5187C335.478 28.5984 337.229 30.3758 338.388 32.4771C339.564 34.595 340 37.0451 340.017 39.4287C340.025 41.8124 339.605 44.2708 338.43 46.4136C337.278 48.5314 335.502 50.342 333.339 51.4217C329.047 53.6393 323.546 53.224 319.689 50.2673L320.232 49.7523C322.945 54.0463 327.937 56.5296 332.953 56.704C337.969 56.9449 343.183 54.8768 346.34 50.8321C347.944 48.8388 349.054 46.4634 349.564 43.9386C350.082 41.422 350.148 38.7975 349.835 36.2477C349.284 31.0901 346.192 26.2729 341.686 23.7813ZM341.686 23.7813C346.217 26.2397 349.35 31.0485 349.934 36.2145C350.263 38.7809 350.23 41.4054 349.753 43.9635C349.284 46.5215 348.19 48.9716 346.595 51.0231C343.437 55.2173 338.109 57.4515 332.928 57.2937C330.33 57.2355 327.715 56.6126 325.396 55.3917C323.052 54.2041 321.038 52.3603 319.59 50.1593L318.365 48.2989L320.133 49.6444C323.751 52.3935 328.94 52.7257 332.969 50.6992C335.001 49.7025 336.662 48.0414 337.764 46.0398C338.874 44.0548 339.293 41.721 339.301 39.4204C339.318 37.1198 338.948 34.7777 337.862 32.7511C336.785 30.7246 335.14 28.9971 333.117 27.9257C329.096 25.7164 323.792 26.0154 320.067 28.8144L319.533 29.213L319.911 28.6649C321.071 26.9706 322.551 25.4922 324.261 24.3793C325.972 23.2664 327.879 22.4607 329.869 22.0371C331.859 21.6136 333.923 21.5637 335.93 21.8378C337.953 22.1202 339.91 22.7846 341.686 23.7813Z" fill="white"/>
<path d="M419.284 57.1691C416.118 55.3253 413.586 52.8419 411.686 49.7274C409.787 46.6129 408.833 43.108 408.833 39.2127C408.833 35.3175 409.787 31.796 411.686 28.6565C413.586 25.5171 416.118 23.0254 419.284 21.1733C422.45 19.3295 425.904 18.4076 429.662 18.4076C431.191 18.4076 432.671 18.5654 434.094 18.8644C433.806 18.6817 433.527 18.499 433.231 18.3246C429.563 16.1735 425.509 15.0938 421.069 15.0938C416.686 15.0938 412.648 16.1735 408.956 18.3246C405.264 20.4757 402.304 23.3909 400.083 27.0619C397.863 30.7329 396.753 34.8441 396.753 39.3871C396.753 43.9385 397.863 48.0331 400.083 51.6709C402.304 55.3086 405.264 58.2072 408.956 60.3583C412.648 62.5095 416.686 63.5892 421.069 63.5892C425.509 63.5892 429.563 62.5095 433.231 60.3583C433.798 60.0261 434.341 59.669 434.875 59.2952C433.214 59.7188 431.471 59.9348 429.662 59.9348C425.904 59.9348 422.45 59.0129 419.284 57.1691Z" fill="white"/>
<path d="M419.286 57.1688C415.043 54.727 411.614 50.7903 409.936 46.1392C409.114 43.8054 408.744 41.3221 408.785 38.8471C408.81 36.372 409.237 33.897 410.133 31.5798C411.934 26.9537 415.429 23.0418 419.771 20.6748C424.105 18.2579 429.31 17.5852 434.161 18.5652L433.939 19.1133C430.313 16.7712 426.045 15.5503 421.761 15.4673C417.468 15.3427 413.16 16.3726 409.443 18.5154C405.709 20.6332 402.527 23.7146 400.323 27.4354C398.087 31.1313 397.042 35.4834 397.116 39.8188C397.157 44.1459 398.325 48.4813 400.702 52.1191C403.012 55.7901 406.326 58.7884 410.158 60.7983C413.982 62.8331 418.381 63.6969 422.698 63.4394C427.032 63.2401 431.292 61.77 434.86 59.2618L434.893 59.3365C432.278 59.9844 429.54 60.1173 426.876 59.7767C424.203 59.4362 421.613 58.5392 419.286 57.1688ZM419.286 57.1688C421.613 58.5226 424.211 59.403 426.876 59.7352C429.54 60.0591 432.262 59.9179 434.869 59.2535L435.091 59.1954L434.901 59.3282C431.333 61.8614 427.065 63.3564 422.707 63.6305C418.357 63.9461 413.891 63.1321 409.977 61.1222C406.063 59.1372 402.642 56.1223 400.225 52.4098C397.758 48.7222 396.442 44.2622 396.401 39.8188C396.294 35.3754 397.355 30.8572 399.649 27.0201C401.886 23.1747 405.175 19.9439 409.048 17.8011C412.905 15.6085 417.378 14.5786 421.777 14.7281C423.981 14.7862 426.185 15.1184 428.29 15.7746C430.395 16.4307 432.418 17.3858 434.252 18.6067L435.584 19.4954L434.03 19.1632C429.326 18.1499 424.236 18.723 419.952 21.0319C415.659 23.2993 412.165 27.1032 410.314 31.6546C409.402 33.9302 408.933 36.3886 408.9 38.8471C408.851 41.3055 409.204 43.7805 410.01 46.106C411.663 50.757 415.059 54.7104 419.286 57.1688Z" fill="white"/>
<path d="M437.081 23.7819C434.565 22.3866 431.843 21.689 428.924 21.689C426.004 21.689 423.283 22.3866 420.766 23.7819C418.612 24.9779 416.828 26.6307 415.413 28.7237C415.841 28.3997 416.301 28.1008 416.778 27.8267C418.637 26.7968 420.651 26.2819 422.814 26.2819C424.977 26.2819 426.991 26.7968 428.85 27.8267C430.708 28.8566 432.213 30.3432 433.356 32.2867C434.499 34.2302 435.066 36.5972 435.066 39.3878C435.066 42.1785 434.499 44.5455 433.356 46.4807C432.213 48.4241 430.716 49.8942 428.85 50.8909C426.991 51.8875 424.977 52.3941 422.814 52.3941C420.651 52.3941 418.637 51.8958 416.778 50.8909C416.26 50.6085 415.775 50.2846 415.314 49.9357C416.737 52.0951 418.554 53.7728 420.766 54.9605C423.283 56.3143 426.004 56.9871 428.924 56.9871C431.843 56.9871 434.565 56.3143 437.081 54.9605C439.597 53.6067 441.628 51.6217 443.174 48.9972C444.712 46.3727 445.485 43.1751 445.485 39.4045C445.485 35.6338 444.712 32.4362 443.174 29.8117C441.628 27.1872 439.597 25.1772 437.081 23.7819Z" fill="white"/>
<path d="M437.081 23.7813C435.297 22.8012 433.34 22.1451 431.333 21.8793C429.327 21.6136 427.271 21.68 425.298 22.1119C423.324 22.5438 421.425 23.3577 419.739 24.4789C418.053 25.6002 416.622 27.0951 415.504 28.7895L415.348 28.64C419.098 25.7248 424.525 25.2929 428.743 27.5187C430.873 28.5984 432.625 30.3758 433.784 32.4771C434.96 34.595 435.396 37.0451 435.412 39.4287C435.412 41.8124 435.001 44.2708 433.825 46.4136C432.674 48.5314 430.898 50.342 428.735 51.4217C424.443 53.6393 418.941 53.224 415.085 50.2673L415.627 49.7523C418.341 54.0463 423.332 56.5296 428.349 56.704C433.365 56.9449 438.578 54.8768 441.736 50.8321C443.339 48.8388 444.449 46.4634 444.959 43.9386C445.477 41.422 445.543 38.7975 445.231 36.2477C444.68 31.0901 441.588 26.2729 437.081 23.7813ZM437.081 23.7813C441.612 26.2397 444.745 31.0485 445.329 36.2145C445.658 38.7809 445.625 41.4054 445.148 43.9635C444.68 46.5215 443.586 48.9716 441.991 51.0231C438.833 55.2173 433.504 57.4515 428.324 57.2937C425.725 57.2355 423.11 56.6126 420.791 55.3917C418.448 54.2041 416.433 52.3603 414.986 50.1593L413.761 48.2989L415.529 49.6444C419.147 52.3935 424.336 52.7257 428.365 50.6992C430.396 49.7025 432.057 48.0414 433.159 46.0398C434.269 44.0548 434.689 41.721 434.697 39.4204C434.713 37.1198 434.343 34.7777 433.258 32.7511C432.18 30.7246 430.536 28.9971 428.513 27.9257C424.492 25.7164 419.188 26.0154 415.463 28.8144L414.928 29.213L415.307 28.6649C416.466 26.9706 417.946 25.4922 419.657 24.3793C421.367 23.2664 423.275 22.4607 425.265 22.0371C427.255 21.6136 429.319 21.5637 431.325 21.8378C433.348 22.1202 435.305 22.7846 437.081 23.7813Z" fill="white"/>
<path d="M108.395 54.1711C110.196 51.231 111.1 47.7261 111.1 43.6647V16.2817H99.4808V41.5718C99.4808 45.1514 98.6503 47.8175 97.0057 49.5782C95.3528 51.339 93.2066 52.2193 90.567 52.2193C89.646 52.2193 88.7908 52.1113 87.9932 51.9037C88.7744 53.515 89.8187 55.0764 91.2248 56.4053C91.4798 56.6461 91.7429 56.8787 92.0143 57.0946C97.1537 61.2307 104.875 59.8852 108.354 54.2542C108.362 54.2292 108.378 54.196 108.395 54.1711Z" fill="white"/>
<path d="M108.395 54.1708C110.064 51.4384 110.87 48.2491 111.018 45.0598C111.075 41.8705 111.026 38.6646 111.001 35.467L110.804 16.2732L111.092 16.5638C107.219 16.6137 103.346 16.6386 99.4726 16.6469L99.8426 16.2732L99.8755 27.2114L99.8344 38.1497L99.8262 40.8822C99.8344 41.7874 99.8097 42.726 99.7028 43.6479C99.489 45.4834 98.9956 47.3521 97.8937 48.8969C96.7919 50.4251 95.1883 51.5546 93.3957 52.053C91.6031 52.5347 89.72 52.5181 87.9438 52.0613L88.1329 51.8287C89.0293 53.739 90.2709 55.4997 91.8909 56.8535C93.4779 58.2322 95.4926 59.1043 97.5813 59.3617C98.6256 59.4946 99.6864 59.4531 100.722 59.3036C101.75 59.096 102.786 58.8385 103.732 58.3568C105.64 57.4681 107.26 55.9648 108.395 54.1708ZM108.395 54.1708C107.276 55.9731 105.665 57.493 103.749 58.3983C102.803 58.8883 101.767 59.1624 100.731 59.3783C99.6864 59.5362 98.6174 59.586 97.5648 59.4614C96.5205 59.3202 95.4679 59.0877 94.4976 58.6475C93.996 58.4648 93.5437 58.1824 93.0668 57.9332C92.6227 57.6425 92.1705 57.3435 91.7593 57.0113C90.09 55.6741 88.7908 53.9051 87.8369 51.9782L87.6807 51.6626L88.026 51.7457C89.7447 52.1526 91.5949 52.1277 93.2806 51.6294C94.9663 51.1311 96.4629 50.0264 97.4497 48.5813C98.4447 47.1278 98.8805 45.3505 99.045 43.5814C99.1354 42.6844 99.1272 41.8041 99.1272 40.8822L99.119 38.1497L99.0779 27.2114L99.1108 16.2732V15.8994H99.4808C103.354 15.9077 107.227 15.9326 111.1 15.9825H111.396V16.2732L111.199 35.467C111.141 38.6646 111.199 41.8622 111.1 45.0681C110.919 48.2574 110.08 51.455 108.395 54.1708Z" fill="white"/>
<path d="M81.6213 40.2175H81.6296L81.5473 16.2729H70.0186V43.656C70.0186 47.7173 70.9066 51.2222 72.6746 54.1623C74.4426 57.1024 76.8766 59.3615 79.9685 60.9395C83.0604 62.5176 86.5881 63.3066 90.5516 63.3066C91.7522 63.3066 92.9034 63.2235 94.03 63.0741C91.8838 62.202 89.976 61.0143 88.3314 59.4612C80.7826 52.3268 81.5885 40.7075 81.6213 40.2175Z" fill="white"/>
<path d="M81.6223 40.2177H81.6306L81.4332 28.2496L81.2852 16.2814L81.5483 16.5472L70.0196 16.6303L70.3649 16.2814L70.406 32.0535L70.4225 39.9436C70.4636 42.5764 70.2991 45.2092 70.7596 47.7424C71.5491 52.8419 74.6738 57.493 79.1143 60.0677C83.5383 62.6922 88.908 63.4064 93.9981 62.8002L93.9241 63.3649C91.7696 62.4762 89.7468 61.2055 88.0775 59.561C86.3917 57.9332 85.0514 55.9648 84.0564 53.8552C83.0696 51.7373 82.3953 49.4865 82.0088 47.1859C81.6306 44.877 81.4661 42.5432 81.6223 40.2177ZM81.6223 40.2177C81.5237 42.5349 81.7457 44.8604 82.1897 47.1361C82.6338 49.4118 83.3574 51.621 84.3853 53.6808C85.4214 55.7322 86.7453 57.6425 88.4146 59.1956C90.0592 60.7736 92.041 61.9779 94.1461 62.8085L95.174 63.2154L94.0721 63.3732C91.4654 63.7387 88.8093 63.7137 86.1944 63.3234C83.5877 62.9081 81.0385 62.0444 78.7443 60.6989C74.1147 58.0494 70.809 53.1825 69.962 47.8753C69.7317 46.5547 69.6166 45.2176 69.6084 43.8887L69.6166 39.9436L69.6331 32.0535L69.6742 16.2814V15.9326H70.0196L81.5483 16.0157H81.8115V16.2731L81.7457 28.2496L81.6388 40.226L81.6223 40.2177Z" fill="white"/>
<path d="M493.763 54.1711C495.564 51.231 496.468 47.7261 496.468 43.6647V16.2817H484.849V41.5718C484.849 45.1514 484.018 47.8175 482.374 49.5782C480.721 51.339 478.575 52.2193 475.935 52.2193C475.014 52.2193 474.159 52.1113 473.361 51.9037C474.143 53.515 475.187 55.0764 476.593 56.4053C476.848 56.6461 477.111 56.8787 477.382 57.0946C482.522 61.2307 490.243 59.8852 493.722 54.2542C493.738 54.2292 493.755 54.196 493.763 54.1711Z" fill="white"/>
<path d="M493.763 54.1708C495.432 51.4384 496.238 48.2491 496.386 45.0598C496.444 41.8705 496.394 38.6646 496.37 35.467L496.172 16.2732L496.46 16.5638C492.587 16.6137 488.714 16.6386 484.841 16.6469L485.211 16.2732L485.244 27.2114L485.203 38.1497L485.194 40.8822C485.203 41.7874 485.178 42.726 485.071 43.6479C484.857 45.4834 484.364 47.3521 483.262 48.8969C482.16 50.4251 480.556 51.5546 478.764 52.053C476.971 52.5347 475.088 52.5181 473.312 52.0613L473.501 51.8287C474.397 53.739 475.639 55.4997 477.259 56.8535C478.846 58.2322 480.861 59.1043 482.949 59.3617C483.994 59.4946 485.055 59.4531 486.091 59.3036C487.119 59.096 488.155 58.8385 489.1 58.3568C491.016 57.4681 492.636 55.9648 493.763 54.1708ZM493.763 54.1708C492.644 55.9731 491.033 57.493 489.117 58.3983C488.171 58.8883 487.135 59.1624 486.099 59.3783C485.055 59.5362 483.986 59.586 482.933 59.4614C481.889 59.3202 480.836 59.0877 479.866 58.6475C479.364 58.4648 478.912 58.1824 478.435 57.9332C477.991 57.6425 477.539 57.3435 477.127 57.0113C475.458 55.6741 474.159 53.9051 473.205 51.9782L473.049 51.6626L473.394 51.7457C475.113 52.1526 476.963 52.1277 478.649 51.6294C480.334 51.1311 481.831 50.0264 482.818 48.5813C483.813 47.1278 484.249 45.3505 484.413 43.5814C484.504 42.6844 484.495 41.8041 484.495 40.8822L484.487 38.1497L484.446 27.2114L484.479 16.2732V15.8994H484.849C488.722 15.9077 492.595 15.9326 496.468 15.9825H496.764V16.2732L496.567 35.467C496.509 38.6646 496.567 41.8622 496.468 45.0681C496.296 48.2574 495.457 51.455 493.763 54.1708Z" fill="white"/>
<path d="M466.996 40.2175H467.005L466.922 16.2729H455.394V43.656C455.394 47.7173 456.282 51.2222 458.05 54.1623C459.818 57.1024 462.252 59.3615 465.344 60.9395C468.435 62.5176 471.963 63.3066 475.927 63.3066C477.127 63.3066 478.278 63.2235 479.405 63.0741C477.259 62.202 475.351 61.0143 473.706 59.4612C466.158 52.3268 466.955 40.7075 466.996 40.2175Z" fill="white"/>
<path d="M466.997 40.2177H467.006L466.808 28.2496L466.66 16.2814L466.923 16.5472L455.395 16.6303L455.74 16.2814L455.781 32.0535L455.797 39.9436C455.839 42.5764 455.674 45.2092 456.135 47.7424C456.924 52.8419 460.049 57.493 464.489 60.0677C468.913 62.6922 474.283 63.4064 479.373 62.8002L479.299 63.3649C477.145 62.4762 475.122 61.2055 473.452 59.561C471.767 57.9332 470.426 55.9648 469.431 53.8552C468.445 51.7373 467.77 49.4865 467.384 47.1859C467.006 44.877 466.841 42.5432 466.997 40.2177ZM466.997 40.2177C466.899 42.5349 467.121 44.8604 467.565 47.1361C468.009 49.4118 468.732 51.621 469.76 53.6808C470.796 55.7322 472.12 57.6425 473.79 59.1956C475.434 60.7736 477.416 61.9779 479.521 62.8085L480.549 63.2154L479.447 63.3732C476.84 63.7387 474.184 63.7137 471.569 63.3234C468.963 62.9081 466.413 62.0444 464.119 60.6989C459.49 58.0494 456.184 53.1825 455.337 47.8753C455.107 46.5547 454.992 45.2176 454.983 43.8887L454.992 39.9436L455.008 32.0535L455.049 16.2814V15.9326H455.395L466.923 16.0157H467.186V16.2731L467.121 28.2496L467.014 40.226L466.997 40.2177Z" fill="white"/>
<path d="M129.202 28.4932V48.7584C129.202 53.3679 130.477 56.9891 133.034 59.6302C135.583 62.2713 138.905 63.5919 142.992 63.5919C145.574 63.5919 147.721 63.1932 149.431 62.4125C151.141 61.6235 152.572 60.6518 153.707 59.4973V50.3115C152.687 50.9759 151.594 51.4909 150.418 51.8563C149.25 52.2218 147.852 52.4045 146.232 52.4045C144.374 52.4045 142.976 51.8148 142.047 50.6271C141.117 49.4478 140.649 47.8199 140.649 45.7601V25.9268H153.263V16.2842H144.851C143.313 16.741 141.825 17.3141 140.41 18.0366C135.517 20.5199 131.883 24.3903 129.202 28.4932Z" fill="white"/>
<path d="M129.2 28.4909L129.34 42.2862L129.414 49.1631C129.471 51.4305 129.833 53.7145 130.754 55.7742C131.651 57.834 133.131 59.6279 134.948 60.9153C136.765 62.2192 138.936 62.9501 141.148 63.1578C143.36 63.3488 145.655 63.2325 147.776 62.6345C148.837 62.3355 149.84 61.8372 150.802 61.2724C151.756 60.6994 152.652 60.0266 153.425 59.2376L153.318 59.5034L153.302 50.3176L153.902 50.6415C152.554 51.5218 151.065 52.1697 149.486 52.5102C148.697 52.6763 147.899 52.7594 147.11 52.7926C146.329 52.8258 145.507 52.8424 144.684 52.668C143.87 52.5019 143.064 52.1614 142.406 51.6132C141.74 51.065 141.263 50.3425 140.926 49.5784C140.244 48.0419 140.203 46.3309 140.236 44.7861L140.268 25.9328V25.5674H140.63L153.244 25.6089L152.924 25.9328L152.981 16.2902L153.244 16.556L144.832 16.5061L144.89 16.4978C143.286 16.9629 141.707 17.5443 140.219 18.3167C138.731 19.0808 137.3 19.9861 135.984 21.0326C133.345 23.1006 131.091 25.6753 129.2 28.4909ZM129.2 28.4909C131.026 25.6421 133.229 23.001 135.861 20.8499C138.476 18.6905 141.527 17.0377 144.783 16.0743L144.808 16.0659H144.84L153.253 16.0161H153.516V16.2819L153.573 25.9245V26.2401H153.253L140.638 26.2816L141 25.9162L141.033 44.7695C141.008 46.3476 141.066 47.8675 141.675 49.2295C141.971 49.894 142.398 50.5086 142.933 50.9571C143.475 51.4139 144.141 51.7046 144.849 51.8458C145.556 51.9953 146.304 51.9953 147.077 51.962C147.834 51.9288 148.59 51.8541 149.33 51.7046C150.794 51.3973 152.217 50.791 153.483 49.9687L154.083 49.5784V50.2926L154.067 59.4785V59.6363L153.96 59.7442C153.129 60.5831 152.184 61.289 151.18 61.8787C150.177 62.4601 149.116 62.9833 147.982 63.2989C145.72 63.9219 143.393 64.0381 141.083 63.8056C138.78 63.5564 136.494 62.7674 134.611 61.3721C132.72 60.0017 131.198 58.1164 130.294 55.9569C129.365 53.8058 129.019 51.4554 128.986 49.1465L129.044 42.2364L129.2 28.4909Z" fill="white"/>
<path d="M138.492 14.2632C139.2 13.9061 139.915 13.5738 140.647 13.2748V2.90137H134.792C133.353 7.56902 131.412 11.3314 128.978 14.1801C126.544 17.0289 123.888 18.9724 121.002 20.0022V25.9157H125.821C128.83 21.3976 132.925 17.112 138.492 14.2632Z" fill="white"/>
<path d="M138.491 14.2633L140.638 13.2584L140.629 13.275C140.605 9.81992 140.597 6.35656 140.523 2.9015L140.646 3.02609L134.791 3.13405L135.005 2.97625C134.47 4.81175 133.837 6.62233 133.04 8.37478C132.25 10.1272 131.28 11.7966 130.137 13.3497C128.977 14.8945 127.67 16.3148 126.157 17.5274C124.652 18.7316 122.95 19.72 121.124 20.3595L121.371 20.0107C121.363 21.9791 121.338 23.9558 121.297 25.9241L121.001 25.6252L125.82 25.7082L125.647 25.7996C127.308 23.391 129.224 21.1734 131.37 19.2134C133.508 17.2533 135.901 15.5673 138.491 14.2633ZM138.491 14.2633C135.926 15.6005 133.558 17.3114 131.452 19.3047C129.364 21.3146 127.555 23.5986 125.992 26.0321L125.935 26.1235H125.82L121.001 26.2065L120.713 26.2148L120.705 25.9158C120.664 23.9475 120.639 21.9708 120.631 20.0024V19.7449L120.878 19.6535C122.604 19.014 124.216 18.0589 125.647 16.8795C127.078 15.7085 128.393 14.3547 129.528 12.8763C130.671 11.398 131.609 9.76178 132.447 8.07578C133.286 6.38978 133.969 4.62072 134.569 2.82675L134.627 2.66064H134.791L140.646 2.76861H140.769V2.8932C140.695 6.34825 140.695 9.81161 140.662 13.2667V13.275L140.654 13.2833L138.491 14.2633Z" fill="white"/>
<path d="M364.136 28.4932V48.7584C364.136 53.3679 365.41 56.9891 367.968 59.6302C370.517 62.2713 373.839 63.5919 377.926 63.5919C380.508 63.5919 382.654 63.1932 384.365 62.4125C386.075 61.6235 387.506 60.6518 388.641 59.4973V50.3115C387.621 50.9759 386.527 51.4909 385.351 51.8563C384.184 52.2218 382.786 52.4045 381.166 52.4045C379.307 52.4045 377.909 51.8148 376.98 50.6271C376.051 49.4478 375.582 47.8199 375.582 45.7601V25.9268H388.197V16.2842H379.784C378.247 16.741 376.758 17.3141 375.344 18.0366C370.451 20.5199 366.825 24.3903 364.136 28.4932Z" fill="white"/>
<path d="M364.134 28.4909L364.274 42.2862L364.348 49.1631C364.405 51.4305 364.767 53.7145 365.688 55.7742C366.585 57.834 368.065 59.6279 369.882 60.9153C371.691 62.2192 373.87 62.9501 376.082 63.1578C378.294 63.3488 380.589 63.2325 382.71 62.6345C383.771 62.3355 384.774 61.8372 385.736 61.2724C386.69 60.6994 387.586 60.0266 388.359 59.2376L388.253 59.5034L388.236 50.3176L388.836 50.6415C387.488 51.5218 386.008 52.1697 384.421 52.5102C383.631 52.6763 382.833 52.7594 382.044 52.7926C381.263 52.8258 380.441 52.8424 379.618 52.668C378.804 52.5019 377.998 52.1614 377.34 51.6132C376.674 51.065 376.197 50.3425 375.86 49.5784C375.178 48.0419 375.137 46.3309 375.17 44.7861L375.202 25.9328V25.5674H375.564L388.179 25.6089L387.858 25.9328L387.915 16.2902L388.179 16.556L379.766 16.5061L379.824 16.4978C378.22 16.9629 376.641 17.5443 375.153 18.3167C373.665 19.0808 372.234 19.9861 370.918 21.0326C368.279 23.1006 366.025 25.6753 364.134 28.4909ZM364.134 28.4909C365.96 25.6421 368.163 23.001 370.795 20.8499C373.41 18.6905 376.461 17.0377 379.717 16.0743L379.742 16.0659H379.774L388.187 16.0161H388.442V16.2819L388.499 25.9245V26.2401H388.179L375.564 26.2816L375.926 25.9162L375.959 44.7695C375.934 46.3476 375.992 47.8675 376.6 49.2295C376.896 49.894 377.324 50.5086 377.859 50.9571C378.401 51.4139 379.067 51.7046 379.774 51.8458C380.482 51.9953 381.23 51.9953 382.003 51.962C382.759 51.9288 383.516 51.8541 384.256 51.7046C385.72 51.3973 387.142 50.791 388.409 49.9687L389.009 49.5784V50.2926L388.993 59.4785V59.6363L388.886 59.7442C388.055 60.5831 387.11 61.289 386.106 61.8787C385.103 62.4601 384.042 62.9833 382.907 63.2989C380.646 63.9219 378.319 64.0381 376.008 63.8056C373.706 63.5564 371.42 62.7674 369.537 61.3721C367.645 60.0017 366.124 58.1164 365.22 55.9569C364.29 53.8058 363.945 51.4554 363.912 49.1465L363.97 42.2364L364.134 28.4909Z" fill="white"/>
<path d="M373.428 14.2632C374.135 13.9061 374.851 13.5738 375.582 13.2748V2.90137H369.728C368.289 7.56902 366.348 11.3314 363.914 14.1801C361.48 17.0289 358.824 18.9724 355.938 20.0022V25.9157H360.756C363.766 21.3976 367.861 17.112 373.428 14.2632Z" fill="white"/>
<path d="M373.426 14.2633L375.572 13.2584L375.564 13.275C375.539 9.81992 375.531 6.35656 375.457 2.9015L375.58 3.02609L369.726 3.13405L369.939 2.97625C369.405 4.81175 368.772 6.62233 367.974 8.37478C367.185 10.1272 366.214 11.7966 365.071 13.3497C363.912 14.8945 362.604 16.3148 361.091 17.5274C359.587 18.7316 357.884 19.72 356.059 20.3595L356.306 20.0107C356.297 21.9791 356.273 23.9558 356.231 25.9241L355.935 25.6252L360.754 25.7082L360.582 25.7996C362.243 23.391 364.159 21.1734 366.305 19.2134C368.443 17.2533 370.844 15.5673 373.426 14.2633ZM373.426 14.2633C370.86 15.6005 368.492 17.3114 366.387 19.3047C364.298 21.3146 362.489 23.5986 360.927 26.0321L360.869 26.1235H360.754L355.935 26.2065L355.648 26.2148L355.639 25.9158C355.598 23.9475 355.574 21.9708 355.565 20.0024V19.7449L355.812 19.6535C357.539 19.014 359.151 18.0589 360.582 16.8795C362.012 15.7085 363.328 14.3547 364.463 12.8763C365.606 11.398 366.543 9.76178 367.382 8.07578C368.221 6.38978 368.903 4.62072 369.504 2.82675L369.561 2.66064H369.726L375.58 2.76861H375.704V2.8932C375.63 6.34825 375.63 9.81161 375.597 13.2667V13.275L375.589 13.2833L373.426 14.2633Z" fill="white"/>
<path d="M528.276 47.6348C528.408 47.9919 528.473 48.3739 528.473 48.7892C528.473 50.334 527.84 51.53 526.59 52.3689C525.332 53.2077 523.54 53.623 521.213 53.623C519.741 53.623 518.112 53.3904 516.336 52.9253C514.56 52.4602 512.841 51.8539 511.189 51.1147C509.536 50.3673 508.121 49.5948 506.962 48.7892V59.0963C508.491 60.2756 510.736 61.3553 513.672 62.3437C515.604 62.9915 517.586 63.4068 519.601 63.631C524.716 64.1958 530.496 63.6642 534.739 60.5248C537.009 58.8471 538.177 56.3555 538.177 53.5815C538.168 50.1264 535.118 48.8972 528.276 47.6348Z" fill="white"/>
<path d="M528.275 47.6348C528.48 48.1497 528.53 48.7145 528.489 49.2626C528.456 49.8191 528.316 50.3673 528.069 50.8739C527.559 51.8872 526.606 52.6014 525.594 53.0333C524.566 53.4652 523.464 53.6728 522.371 53.7642C521.269 53.8638 520.159 53.8306 519.065 53.6977C516.869 53.4237 514.748 52.8091 512.676 52.0533C510.62 51.2642 508.605 50.3423 506.763 49.0799L507.314 48.7892L507.347 59.0963L507.191 58.789C508.811 60.0016 510.71 60.8404 512.643 61.5464C514.575 62.2773 516.549 62.8088 518.588 63.1078C522.642 63.6892 526.869 63.631 530.734 62.2523C531.696 61.9118 532.633 61.4965 533.505 60.965C534.376 60.4334 535.223 59.8604 535.881 59.0963C537.246 57.6013 537.978 55.5582 537.962 53.515C537.962 52.5101 537.633 51.5134 536.901 50.8157C536.194 50.0932 535.248 49.6281 534.294 49.2543C532.345 48.5152 530.298 48.0833 528.275 47.6348ZM528.275 47.6348C530.322 47.9753 532.386 48.3324 534.368 49.0135C535.347 49.3706 536.342 49.8025 537.131 50.5583C537.542 50.9154 537.847 51.3971 538.069 51.8955C538.291 52.4104 538.356 52.9669 538.381 53.5067C538.447 55.6578 537.723 57.8505 536.292 59.4866C535.593 60.3255 534.705 60.9567 533.817 61.5298C532.921 62.1028 531.951 62.5596 530.956 62.9251C526.943 64.3785 522.609 64.4616 518.465 63.8968C516.384 63.6061 514.312 63.0746 512.355 62.3271C510.39 61.5796 508.441 60.7241 506.722 59.4119L506.566 59.2956V59.1046L506.599 48.7975V48.1248L507.15 48.4985C508.918 49.7111 510.875 50.6912 512.881 51.4968C514.896 52.2858 516.985 52.9253 519.114 53.2409C520.183 53.3987 521.261 53.4403 522.338 53.3904C523.415 53.3406 524.492 53.1745 525.495 52.7924C526.49 52.4021 527.42 51.7626 527.946 50.8074C528.201 50.334 528.365 49.8025 528.423 49.2626C528.472 48.7228 528.456 48.158 528.275 47.6348Z" fill="white"/>
<path d="M516.846 30.7021C516.715 30.3449 516.649 29.9629 516.649 29.5476C516.649 28.0028 517.282 26.8068 518.532 25.968C519.79 25.1291 521.583 24.7139 523.91 24.7139C525.382 24.7139 527.01 24.9464 528.786 25.4115C530.563 25.8766 532.281 26.4829 533.934 27.2221C535.587 27.9696 537.001 28.742 538.161 29.5476V19.2406C536.631 18.0612 534.395 16.9815 531.451 15.9932C529.518 15.3453 527.536 14.9301 525.522 14.7058C520.407 14.141 514.626 14.6726 510.383 17.812C508.113 19.4897 506.946 21.9814 506.946 24.7554C506.954 28.2104 510.013 29.4396 516.846 30.7021Z" fill="white"/>
<path d="M516.844 30.7002C516.639 30.1852 516.589 29.6205 516.63 29.0723C516.663 28.5159 516.803 27.9677 517.05 27.4611C517.56 26.4478 518.513 25.7335 519.525 25.3017C520.553 24.8698 521.655 24.6621 522.748 24.5708C523.85 24.4711 524.96 24.5043 526.054 24.6372C528.25 24.9113 530.371 25.5259 532.443 26.2817C534.499 27.0707 536.514 27.9926 538.356 29.255L537.805 29.5457L537.772 19.2387L537.928 19.546C536.308 18.3334 534.409 17.4946 532.476 16.7886C530.544 16.0577 528.57 15.5262 526.531 15.2272C522.477 14.6458 518.25 14.7122 514.385 16.0826C513.423 16.4232 512.486 16.8384 511.614 17.37C510.743 17.9015 509.896 18.4746 509.238 19.2387C507.873 20.7337 507.141 22.7768 507.157 24.8199C507.157 25.8249 507.486 26.8215 508.218 27.5192C508.917 28.2418 509.871 28.7069 510.825 29.0806C512.774 29.8281 514.821 30.26 516.844 30.7002ZM516.844 30.7002C514.797 30.3597 512.733 30.0025 510.751 29.3215C509.772 28.9643 508.777 28.5325 507.988 27.7767C507.577 27.4195 507.273 26.9378 507.05 26.4395C506.828 25.9246 506.763 25.3681 506.738 24.8282C506.672 22.6771 507.396 20.4845 508.827 18.8483C509.526 18.0095 510.414 17.3783 511.302 16.8052C512.198 16.2321 513.168 15.7753 514.163 15.4099C518.176 13.9564 522.51 13.8734 526.654 14.4382C528.735 14.7288 530.807 15.2604 532.764 16.0079C534.729 16.7554 536.678 17.6108 538.397 18.9231L538.553 19.0394V19.2304L538.52 29.5374V30.2102L537.969 29.8364C536.201 28.6238 534.244 27.6438 532.238 26.8382C530.223 26.0491 528.134 25.4013 526.005 25.094C524.936 24.9362 523.858 24.8947 522.781 24.9445C521.704 24.9943 520.627 25.1605 519.624 25.5425C518.629 25.9329 517.699 26.5724 517.173 27.5275C516.918 28.0009 516.754 28.5325 516.696 29.0723C516.647 29.6205 516.663 30.1769 516.844 30.7002Z" fill="white"/>
<path d="M539.286 49.5441C539.319 49.1289 539.335 48.7136 539.335 48.2817C539.335 48.2651 539.335 48.2485 539.335 48.2319C539.327 45.3914 538.052 42.6672 535.898 40.84C530.775 36.4797 524.312 35.3086 518.432 34.2455C514.46 33.5313 510.447 32.8087 507.767 30.832C506.961 30.126 506.311 29.2872 505.867 28.2656C505.851 28.44 505.834 28.6145 505.818 28.7889C505.785 29.2041 505.769 29.6194 505.769 30.0513C505.769 30.0679 505.769 30.0845 505.769 30.1011C505.777 32.9416 507.051 35.6658 509.206 37.493C514.329 41.8533 520.792 43.0244 526.672 44.0875C530.643 44.8017 534.656 45.5243 537.337 47.501C538.143 48.207 538.792 49.0458 539.237 50.0674C539.261 49.893 539.278 49.7185 539.286 49.5441Z" fill="white"/>
<path d="M539.285 49.5451C539.409 47.8757 539.187 46.1814 538.529 44.6532C537.879 43.1333 536.851 41.7878 535.544 40.7911C532.97 38.7148 529.919 37.3278 526.77 36.4059C523.604 35.4757 520.339 34.9607 517.066 34.371C515.43 34.072 513.785 33.7564 512.174 33.283C510.562 32.8096 508.95 32.1867 507.544 31.1651L507.536 31.1568L507.519 31.1402C506.672 30.4093 505.965 29.4791 505.505 28.4326L506.286 28.3081L506.237 28.823L505.472 28.9974L506.237 28.7898V28.8064V28.823C506.072 30.4592 506.245 32.0704 506.853 33.5654C507.454 35.0521 508.424 36.3892 509.69 37.3859C512.207 39.4955 515.225 40.8991 518.358 41.8791C521.499 42.8758 524.763 43.4572 528.02 44.0801C529.648 44.3957 531.284 44.7445 532.88 45.2512C534.467 45.7578 536.037 46.4056 537.386 47.4189C538.192 48.1414 538.833 49.0467 539.244 50.0434H539.219L539.285 49.5451ZM539.285 49.5451L539.244 50.0683V50.1098L539.228 50.0683C538.775 49.0883 538.093 48.2411 537.287 47.5601H537.295C535.947 46.6049 534.376 46.0236 532.789 45.5751C531.202 45.1349 529.574 44.8359 527.946 44.5452C524.681 43.9887 521.384 43.4821 518.168 42.527C514.961 41.5801 511.845 40.135 509.222 37.9756C507.873 36.9125 506.796 35.4673 506.138 33.8644C505.472 32.2614 505.266 30.4509 505.431 28.7483V28.7815L506.196 28.5738L505.431 28.7483L505.48 28.2167L505.636 26.647L506.261 28.1004C506.664 29.0306 507.281 29.8612 508.046 30.5339L508.021 30.5173C509.304 31.4641 510.842 32.0787 512.396 32.5521C513.958 33.0255 515.578 33.3495 517.206 33.6568C520.463 34.2548 523.76 34.8195 526.951 35.8411C530.133 36.846 533.233 38.3161 535.79 40.5088C537.098 41.5802 538.118 43.0087 538.726 44.5867C539.343 46.1564 539.491 47.884 539.285 49.5451Z" fill="white"/>
<path d="M575.527 55.3863C570.428 55.3863 565.897 53.7502 562.888 50.7851C558.094 46.051 556.548 39.1326 559.607 32.9866C560.536 31.1262 561.852 29.4651 563.537 28.2442C565.248 26.9984 567.304 26.3755 569.705 26.3755C571.925 26.3755 573.981 26.8904 575.872 27.9203C575.888 27.9286 575.913 27.9369 575.93 27.9535C579.202 29.7558 581.143 33.3188 581.143 37.0895V38.6592C581.143 41.4498 580.584 43.8335 579.474 45.8019C578.364 47.7702 576.925 49.3067 575.148 50.3948C574.721 50.6522 574.293 50.8848 573.849 51.0841C574.893 51.1755 575.979 51.1838 577.097 51.1007C582.352 50.6938 587.689 48.4098 592.581 44.5976V16.2844H581.143V21.4669C579.457 19.5235 577.36 17.9787 574.836 16.8242C572.311 15.6698 569.82 15.0967 567.361 15.0967C563.455 15.0967 559.903 16.085 556.688 18.0534C553.472 20.0218 550.923 22.829 549.032 26.4668C547.14 30.1046 546.195 34.4732 546.195 39.5645C546.195 44.6557 547.124 48.9995 548.991 52.5791C550.849 56.1587 553.332 58.8912 556.424 60.7682C559.516 62.6453 562.896 63.5921 566.555 63.5921C569.918 63.5921 572.862 62.6951 575.387 60.9094C577.804 59.1985 579.663 57.1554 580.979 54.7966C579.803 55.0458 578.619 55.2202 577.434 55.3116C576.793 55.3614 576.152 55.3863 575.527 55.3863Z" fill="white"/>
<path d="M575.525 55.3839C572.203 55.3839 568.84 54.7029 565.913 53.0667C562.985 51.4389 560.683 48.7728 559.301 45.7081C557.92 42.6434 557.591 39.0887 558.471 35.833C559.342 32.6022 561.242 29.5375 564.12 27.7352C565.559 26.8465 567.228 26.3897 568.898 26.2817C570.575 26.1738 572.269 26.3648 573.873 26.8963C575.46 27.4279 576.989 28.2501 578.198 29.4544C579.407 30.6504 580.303 32.162 580.821 33.7898C581.076 34.6038 581.249 35.4509 581.306 36.3064C581.356 37.1701 581.339 37.9924 581.347 38.8395C581.339 40.5338 581.125 42.2448 580.583 43.8726C579.473 47.1034 577.096 49.919 573.971 51.3392L573.881 50.7994C575.542 50.9406 577.211 50.8409 578.856 50.5751C580.5 50.3093 582.112 49.8525 583.683 49.2712C586.808 48.0918 589.718 46.3643 592.366 44.3045L592.227 44.5952L592.177 16.282L592.588 16.6973L581.15 16.6724L581.537 16.282L581.528 21.4646V22.4862L580.862 21.722C579.464 20.1025 577.754 18.7653 575.863 17.7521C573.971 16.7388 571.932 15.9913 569.835 15.6591C565.625 15.0528 561.176 15.8667 557.435 17.9763C553.66 20.061 550.7 23.4745 548.85 27.403C546.991 31.3397 546.333 35.7748 546.383 40.1352C546.416 44.4955 547.172 48.9306 549.236 52.801C550.256 54.7278 551.53 56.5301 553.076 58.0666C554.614 59.6114 556.44 60.8572 558.405 61.7708C560.37 62.6927 562.5 63.2658 564.663 63.4651C566.817 63.6645 569.029 63.5565 571.118 62.9419C573.215 62.3522 575.131 61.2227 576.792 59.8024C578.461 58.3988 579.908 56.7128 580.977 54.7943L580.986 54.8109C580.089 55.0019 579.185 55.1431 578.28 55.2428C577.359 55.3507 576.438 55.3424 575.525 55.3839ZM575.525 55.3839C576.438 55.3341 577.351 55.3424 578.264 55.2261C579.168 55.1265 580.073 54.977 580.969 54.786L580.994 54.7777L580.986 54.7943C579.917 56.7128 578.486 58.4154 576.808 59.8274C575.155 61.2476 573.231 62.3937 571.126 62.9917C569.029 63.6146 566.809 63.7309 564.646 63.5399C562.475 63.3406 560.329 62.7758 558.347 61.8539C556.366 60.932 554.515 59.6945 552.953 58.158C551.374 56.6298 550.075 54.8192 549.031 52.884C546.909 48.9971 546.103 44.5121 546.029 40.1103C545.947 35.7084 546.555 31.2069 548.422 27.1621C550.272 23.1423 553.274 19.6042 557.147 17.4115C560.987 15.2023 565.551 14.297 569.95 14.9199C572.146 15.2604 574.259 16.0328 576.216 17.071C578.173 18.1092 579.966 19.5045 581.438 21.1905L580.772 21.4397L580.764 16.2571V15.8667H581.15L592.588 15.8418H593V16.2571L592.95 44.5703V44.753L592.81 44.861C590.105 46.9456 587.128 48.7147 583.913 49.8858C582.31 50.4671 580.648 50.9156 578.954 51.1731C577.269 51.4306 575.542 51.5219 573.84 51.3558L572.754 51.2478L573.749 50.8077C576.734 49.4954 579.061 46.8044 580.155 43.7065C580.69 42.1451 580.92 40.484 580.944 38.8229C580.944 37.9924 580.969 37.1369 580.928 36.3147C580.879 35.4925 580.722 34.6785 580.484 33.8895C579.999 32.3115 579.152 30.8497 577.992 29.6787C576.833 28.4993 575.361 27.6853 573.807 27.1538C572.244 26.6223 570.583 26.4146 568.939 26.506C567.294 26.589 565.658 27.0292 564.235 27.8847C562.821 28.7484 561.62 29.9444 560.675 31.3148C559.729 32.6852 559.055 34.2466 558.602 35.8496C557.714 39.0804 558.027 42.6102 559.392 45.6666C560.757 48.7147 563.043 51.389 565.954 53.0169C568.848 54.678 572.212 55.3673 575.525 55.3839Z" fill="white"/>
<path d="M581.149 62.2267H592.587V49.7686C588.92 52.2104 585.047 53.913 581.149 54.7601V62.2267Z" fill="white"/>
<path d="M581.149 62.2271L586.946 62.0361L592.587 61.9032L592.258 62.2354C592.217 60.1591 592.225 58.0827 592.201 56.0063C592.193 53.93 592.16 51.8536 592.184 49.7773L592.801 50.1095C591.033 51.2639 589.167 52.2855 587.234 53.1327C585.293 53.9798 583.262 54.5944 581.198 55.0097L581.388 54.7688C581.371 55.9814 581.33 57.2023 581.272 58.4481L581.149 62.2271ZM581.149 62.2271L581.017 58.5478C580.968 57.302 580.927 56.0313 580.902 54.7605V54.5695L581.1 54.5197C583.123 54.038 585.063 53.3154 586.954 52.4682C588.846 51.6128 590.655 50.5912 592.374 49.4284L592.982 49.0215L592.99 49.769C593.015 51.8453 592.982 53.9217 592.974 55.998C592.957 58.0744 592.957 60.1508 592.916 62.2271L592.908 62.5593L592.587 62.551L586.79 62.4181L581.149 62.2271Z" fill="white"/>
<path d="M232.794 22.2053C232.811 22.1885 232.827 22.1718 232.835 22.155C232.819 22.1046 232.802 22.0543 232.794 22.0039V22.2053Z" fill="white"/>
<path d="M232.795 22.2023C232.828 22.1442 232.787 22.0778 232.737 22.0695L232.713 22.1857L232.392 22.1193L233.198 21.9947C233.132 21.9615 233.042 21.9449 232.951 21.9781C232.877 22.0113 232.82 22.1027 232.795 22.2023ZM232.795 22.2023C232.778 22.2356 232.713 22.2522 232.63 22.2189C232.548 22.1857 232.45 22.0944 232.384 21.9947L233.19 21.8701L232.959 22.1027L232.935 22.2189C232.861 22.2605 232.787 22.2273 232.795 22.2023Z" fill="white"/>
<path d="M289.147 23.6801C287.617 20.8479 285.586 18.7134 283.07 17.2683C280.546 15.8232 277.758 15.1006 274.691 15.1006C271.508 15.1006 268.713 15.981 266.311 17.7334C265.193 18.5556 264.141 19.4609 263.146 20.4493C264.157 22.8828 264.987 25.6983 265.621 28.9125C265.785 28.7547 265.958 28.5886 266.122 28.4391C267.561 27.1767 269.272 26.5455 271.253 26.5455C273.836 26.5455 275.924 27.3179 277.511 28.8544C279.098 30.3909 279.896 32.733 279.896 35.8725L279.986 62.915H291.425V34.3027C291.441 30.0421 290.676 26.5039 289.147 23.6801Z" fill="white"/>
<path d="M289.147 23.6807C287.914 21.4133 286.22 19.3868 284.09 17.9416C281.969 16.4965 279.502 15.5912 276.969 15.2922C274.436 14.9932 271.813 15.1842 269.445 16.1393C267.06 17.0612 265.078 18.7805 263.269 20.5744L263.31 20.3834C264.47 23.1076 265.267 25.9647 265.876 28.8633L265.465 28.7304C266.164 28.0244 267.011 27.3766 267.94 26.9613C268.877 26.5294 269.897 26.3052 270.917 26.2553C272.931 26.1723 275.045 26.5709 276.763 27.7752C277.61 28.3649 278.367 29.1207 278.91 30.0177C279.452 30.9147 279.806 31.9113 280.011 32.9163C280.225 33.9213 280.299 34.9511 280.299 35.9644L280.316 38.9627C280.398 46.9442 280.34 54.934 280.357 62.9155L280.011 62.5667L291.45 62.6664L291.203 62.9155L291.376 43.1154C291.392 39.8181 291.425 36.5126 291.4 33.2153C291.294 29.9347 290.71 26.5959 289.147 23.6807ZM289.147 23.6807C290.734 26.5876 291.343 29.9263 291.458 33.2153C291.507 36.5126 291.483 39.8181 291.516 43.1154L291.688 62.9155V63.1647H291.433L279.995 63.2644H279.65V62.9072C279.617 54.9174 279.502 46.9359 279.526 38.946V35.9478C279.526 34.9677 279.469 33.996 279.271 33.0492C279.082 32.1024 278.762 31.1888 278.276 30.3748C277.791 29.5609 277.125 28.8799 276.344 28.3317C274.79 27.2271 272.841 26.8035 270.917 26.845C268.992 26.8783 267.159 27.6839 265.777 29.0792L265.448 29.4114L265.358 28.9463C264.807 26.0643 264.067 23.2156 262.965 20.508L262.924 20.4L263.006 20.317C264.864 18.5396 266.896 16.8287 269.346 15.9317C271.772 15.0098 274.411 14.8686 276.952 15.1759C279.502 15.4998 281.977 16.4217 284.09 17.8918C286.245 19.3618 287.93 21.405 289.147 23.6807Z" fill="white"/>
<path d="M260.005 24.1374C258.73 21.2139 256.551 18.8634 253.969 17.3519C251.387 15.8486 248.501 15.0928 245.318 15.0928C242.259 15.0928 239.743 15.832 237.794 17.3103C237.202 17.7588 236.643 18.2239 236.108 18.7056C237.021 21.2305 237.753 24.1457 238.304 27.4097C239.431 26.8366 240.656 26.546 241.988 26.546C244.512 26.546 246.568 27.3184 248.155 28.8549C249.742 30.3914 250.54 32.7335 250.54 35.8729L250.63 62.9154H262.069C262.069 60.075 262.069 57.2428 262.069 54.4024C262.069 49.336 262.069 44.2614 262.069 39.1951C262.069 36.5208 262.225 33.8298 261.995 31.1638C261.789 28.722 260.967 26.3549 260.005 24.1374Z" fill="white"/>
<path d="M260.006 24.1375C259.052 21.9531 257.539 20.0263 255.681 18.5562C253.823 17.0862 251.611 16.0895 249.316 15.5746C247.014 15.0763 244.604 15.0098 242.302 15.4666C241.151 15.6992 240.032 16.0978 239.013 16.6709C237.985 17.2357 237.138 18.0828 236.217 18.822L236.266 18.6476C237.311 21.4714 238.018 24.4116 238.552 27.3683L238.207 27.1939C239.926 26.272 241.948 26.1059 243.832 26.3966C245.739 26.6789 247.581 27.6175 248.88 29.1124C250.18 30.6323 250.722 32.6339 250.87 34.5442C250.953 35.5159 250.92 36.4627 250.936 37.4096L250.953 40.2417C250.977 44.0207 251.01 47.7996 250.994 51.5786V62.9155L250.64 62.5584L262.079 62.6581L261.824 62.9155L262.005 43.3729L262.095 33.6057C262.07 31.9778 261.988 30.3416 261.593 28.7636C261.215 27.1607 260.648 25.6325 260.006 24.1375ZM260.006 24.1375C260.656 25.6242 261.24 27.1524 261.626 28.7387C262.029 30.325 262.128 31.9612 262.161 33.5891C262.194 35.2169 262.144 36.8448 262.136 38.4726L262.161 43.3562L262.342 62.8989V63.1564H262.079L250.64 63.2561H250.287V62.8989L250.204 51.562C250.172 47.783 250.172 44.0041 250.172 40.2251V37.393C250.163 36.4461 250.196 35.4993 250.13 34.5857C249.999 32.7585 249.505 30.9147 248.346 29.5443C247.195 28.1656 245.517 27.2603 243.733 26.9613C241.94 26.654 240.049 26.7786 238.421 27.6091L238.125 27.7586L238.067 27.4264C237.59 24.478 236.941 21.5545 235.962 18.7389L235.921 18.6476L236.003 18.5811C236.941 17.8503 237.812 17.0114 238.881 16.4466C239.934 15.8736 241.085 15.4998 242.253 15.2756C243.42 15.0513 244.621 15.0015 245.805 15.0347C246.989 15.0679 248.173 15.2091 249.333 15.4749C251.643 16.0065 253.847 17.0363 255.706 18.5147C257.564 20.0014 259.061 21.9448 260.006 24.1375Z" fill="white"/>
<path d="M232.799 22.2035V21.9959C232.091 19.662 231.286 17.7933 230.43 16.29H221.36V62.9001H232.799V32.5355C232.807 32.5272 232.807 32.5189 232.815 32.5105C233.917 31.0405 234.402 29.1801 234.065 27.3612C233.711 25.4094 233.3 23.6819 232.84 22.1454C232.832 22.1703 232.815 22.1869 232.799 22.2035Z" fill="white"/>
<path d="M232.796 22.2022V21.9945C232.163 20.0344 231.381 18.1159 230.345 16.3385L230.428 16.3884L221.357 16.5046L221.571 16.2887C221.621 24.0543 221.719 31.8281 221.719 39.5937L221.752 62.8988L221.349 62.4918L232.788 62.525L232.418 62.8988C232.426 57.8408 232.442 52.7744 232.492 47.7164L232.631 32.5341V32.476L232.664 32.4344C233.75 31.0474 234.268 29.1953 233.98 27.4346C233.684 25.6572 233.314 23.8798 232.829 22.144L232.796 22.2022ZM232.796 22.2022L232.837 22.1523C233.38 23.8799 233.815 25.6323 234.153 27.418C234.498 29.2285 234.013 31.1637 232.911 32.6421L232.944 32.5424L233.084 47.7247C233.133 52.7827 233.149 57.8491 233.158 62.9071V63.2808H232.788L221.349 63.314H220.946V62.9071L220.987 39.602C220.987 31.8364 221.094 24.0626 221.135 16.297V16.0811H221.349L230.419 16.1973H230.477L230.502 16.2472C231.505 18.066 232.22 20.0178 232.788 22.0028L232.796 22.2022Z" fill="white"/>
</svg>
