<svg width="285" height="31" viewBox="0 0 285 31" fill="none" xmlns="http://www.w3.org/2000/svg">
<path d="M25.8898 23.1293C15.7251 20.1356 8.44143 21.7921 3.67524 24.227C3.0271 24.5583 2.51728 25.1092 2.20902 25.7758L0.268555 30.0189H7.32695L9.53616 24.5543H21.009L23.2182 30.0189H30.2727L27.937 24.9136C27.5418 24.0514 26.7948 23.3968 25.8898 23.1293Z" fill="black"/>
<path d="M25.89 23.1294C23.5227 22.4469 21.1001 21.9359 18.6459 21.7044C16.1956 21.4689 13.7137 21.5168 11.2832 21.892C10.0699 22.0876 8.86844 22.367 7.69468 22.7183C6.52091 23.0855 5.37877 23.5406 4.27219 24.0755C3.99949 24.2152 3.71099 24.3349 3.46992 24.4986C3.22094 24.6622 2.99962 24.8618 2.80992 25.0893C2.62022 25.3169 2.46214 25.5723 2.33962 25.8438L1.96023 26.694L0.426823 30.0909L0.268741 29.8434L7.32714 29.8234L7.14534 29.9472L9.36245 24.4866L9.40988 24.3708H9.53239C13.358 24.3748 17.1796 24.4028 21.0052 24.4347H21.0843L21.112 24.5105L23.2777 29.9951L23.2105 29.9512L30.2689 29.9991L30.2452 30.035L28.5023 26.199L28.0676 25.241C27.9253 24.9177 27.7791 24.5984 27.5696 24.3189C27.1586 23.7521 26.5619 23.329 25.89 23.1294ZM25.89 23.1294C26.5619 23.325 27.1626 23.7441 27.5815 24.307C27.7949 24.5864 27.9451 24.9097 28.0874 25.229L28.53 26.187L30.2926 30.011L30.3084 30.047H30.2689L23.2105 30.0948H23.1631L23.1433 30.047L20.8946 24.5984L21.0052 24.6742C17.1796 24.7101 13.358 24.7341 9.53239 24.7381L9.70233 24.6223L7.50893 30.0948L7.46151 30.2186H7.33109L0.272693 30.1946H0L0.11461 29.9472L1.68358 26.5662L2.07879 25.724C2.21711 25.4326 2.391 25.1532 2.60441 24.9097C2.81783 24.6662 3.0589 24.4507 3.33159 24.279C3.60824 24.1034 3.89279 23.9916 4.17339 23.8519C5.29577 23.325 6.45768 22.8859 7.64725 22.5347C8.83683 22.1954 10.0501 21.9319 11.2713 21.7563C13.7216 21.417 16.2035 21.421 18.6577 21.6605C21.108 21.908 23.5267 22.4349 25.89 23.1294Z" fill="black"/>
<path d="M26.1943 21.1056L16.7647 0.504761H13.7769L4.04297 21.7762C8.76174 19.6926 16.1126 18.1997 26.1943 21.1056ZM15.2945 10.432L18.9304 19.3972H11.6586L15.2945 10.432Z" fill="black"/>
<path d="M26.1943 21.1057L21.3688 10.7913C19.7761 7.37843 18.1756 3.98553 16.6105 0.58066L16.7647 0.680451L13.7769 0.688436L13.9389 0.584653L9.08975 11.2224L4.20104 21.8481L3.97577 21.6166C5.71863 20.8622 7.54054 20.2874 9.39801 19.9321C11.2594 19.5689 13.1485 19.3933 15.0376 19.3853C16.9267 19.3733 18.8158 19.533 20.6812 19.8323C22.5505 20.1397 24.3724 20.5748 26.1943 21.1057ZM26.1943 21.1057C24.3843 20.6187 22.5228 20.2195 20.6654 19.9521C18.8 19.6926 16.9188 19.5809 15.0455 19.6088C13.1683 19.6407 11.295 19.8403 9.46124 20.2195C7.62353 20.5948 5.8372 21.1895 4.11805 21.9319L3.70703 22.1116L3.89278 21.7004L8.73801 11.0547L13.6228 0.428979L13.6702 0.325195H13.7848L16.7726 0.333177H16.8832L16.9307 0.432968C18.5075 3.89372 20.0528 7.36645 21.598 10.8192L26.1943 21.1057Z" fill="black"/>
<path d="M15.2952 10.4319C15.8999 11.8689 16.5401 13.3219 17.1804 14.8108C17.8245 16.2957 18.4766 17.8085 19.0971 19.3253L19.1959 19.5728H18.9311L15.2952 19.5928L11.6593 19.5728H11.3945L11.4933 19.3253C12.1099 17.8045 12.7619 16.2917 13.4101 14.8108L15.2952 10.4319ZM15.2952 10.4319C14.6866 11.9807 14.1136 13.5215 13.5445 15.0183C12.9793 16.5232 12.4181 17.9961 11.8214 19.465L11.6554 19.2175L15.2913 19.1976L18.9272 19.2175L18.7612 19.465C18.1684 17.9961 17.6072 16.5192 17.0381 15.0183C16.4769 13.5215 15.9038 11.9807 15.2952 10.4319Z" fill="black"/>
<path d="M88.6021 27.5927C87.0806 26.7065 85.8633 25.513 84.9504 24.0162C84.0375 22.5193 83.579 20.8348 83.579 18.9627C83.579 17.0907 84.0375 15.3982 84.9504 13.8894C85.8633 12.3805 87.0806 11.183 88.6021 10.2929C90.1237 9.40677 91.7835 8.9637 93.5896 8.9637C94.3247 8.9637 95.0361 9.03954 95.7198 9.18324C95.5815 9.09542 95.4471 9.0076 95.3048 8.92378C93.5422 7.88995 91.5938 7.37103 89.4597 7.37103C87.3533 7.37103 85.4128 7.88995 83.6383 8.92378C81.8638 9.95761 80.4411 11.3587 79.374 13.123C78.307 14.8873 77.7734 16.8631 77.7734 19.0466C77.7734 21.234 78.307 23.2019 79.374 24.9502C80.4411 26.6985 81.8638 28.0916 83.6383 29.1255C85.4128 30.1593 87.3533 30.6782 89.4597 30.6782C91.5938 30.6782 93.5422 30.1593 95.3048 29.1255C95.5775 28.9658 95.8383 28.7942 96.0952 28.6145C95.2969 28.8181 94.4591 28.9219 93.5896 28.9219C91.7835 28.9219 90.1197 28.4788 88.6021 27.5927Z" fill="black"/>
<path d="M88.6017 27.5921C86.5625 26.4186 84.9145 24.5265 84.1082 22.2912C83.7091 21.1695 83.5352 19.9761 83.5549 18.7865C83.5668 17.597 83.7723 16.4075 84.2031 15.2939C85.0686 13.0705 86.7482 11.1905 88.8349 10.0528C90.9176 8.89127 93.4193 8.56795 95.751 9.03896L95.6443 9.30241C93.9015 8.17676 91.8503 7.58999 89.7913 7.55008C87.7283 7.4902 85.6574 7.98516 83.8711 9.01501C82.0769 10.0329 80.5474 11.5138 79.4883 13.302C78.4133 15.0783 77.9114 17.1699 77.947 19.2536C77.9667 21.3332 78.5279 23.4168 79.6701 25.1652C80.7806 26.9295 82.3733 28.3705 84.2149 29.3364C86.0526 30.3144 88.167 30.7295 90.2418 30.6058C92.3246 30.51 94.3718 29.8035 96.0869 28.598L96.1028 28.6339C94.846 28.9453 93.53 29.0091 92.2495 28.8455C90.9651 28.6818 89.7162 28.2507 88.6017 27.5921ZM88.6017 27.5921C89.7202 28.2427 90.969 28.6658 92.2495 28.8255C93.53 28.9812 94.8381 28.9133 96.0909 28.594L96.1976 28.5661L96.1067 28.6299C94.3915 29.8474 92.3404 30.5659 90.2458 30.6976C88.1552 30.8493 86.0092 30.4581 84.128 29.4921C82.2468 28.5381 80.6027 27.0891 79.4408 25.3049C78.2552 23.5326 77.6229 21.3891 77.6031 19.2536C77.5518 17.118 78.0616 14.9466 79.1642 13.1024C80.2392 11.2543 81.82 9.70157 83.6814 8.67173C85.5349 7.61794 87.6849 7.12297 89.7992 7.19482C90.8584 7.22276 91.9175 7.38243 92.9292 7.69777C93.941 8.01311 94.9132 8.47214 95.7945 9.05892L96.4347 9.48602L95.6878 9.32636C93.4272 8.83938 90.9809 9.1148 88.9219 10.2245C86.8589 11.3142 85.1792 13.1424 84.29 15.3298C83.8513 16.4235 83.6261 17.605 83.6103 18.7865C83.5866 19.9681 83.7565 21.1576 84.1438 22.2752C84.9342 24.5105 86.5664 26.4106 88.6017 27.5921Z" fill="black"/>
<path d="M97.1535 11.5457C95.9442 10.8752 94.636 10.5399 93.2331 10.5399C91.8301 10.5399 90.5219 10.8752 89.3126 11.5457C88.2772 12.1205 87.4196 12.9149 86.7398 13.9208C86.9453 13.7651 87.1666 13.6214 87.3959 13.4897C88.289 12.9947 89.2573 12.7472 90.2967 12.7472C91.3361 12.7472 92.3043 12.9947 93.1975 13.4897C94.0907 13.9846 94.8139 14.6991 95.3632 15.6332C95.9126 16.5672 96.1853 17.7048 96.1853 19.046C96.1853 20.3872 95.9126 21.5248 95.3632 22.4549C94.8139 23.3889 94.0946 24.0955 93.1975 24.5745C92.3043 25.0535 91.3361 25.2969 90.2967 25.2969C89.2573 25.2969 88.289 25.0575 87.3959 24.5745C87.1469 24.4387 86.9137 24.2831 86.6924 24.1154C87.3761 25.1532 88.2495 25.9596 89.3126 26.5304C90.5219 27.181 91.8301 27.5043 93.2331 27.5043C94.636 27.5043 95.9442 27.181 97.1535 26.5304C98.3628 25.8797 99.339 24.9257 100.082 23.6644C100.821 22.403 101.193 20.8662 101.193 19.054C101.193 17.2418 100.821 15.705 100.082 14.4437C99.3351 13.1823 98.3589 12.2163 97.1535 11.5457Z" fill="black"/>
<path d="M97.1534 11.5458C96.2958 11.0747 95.3552 10.7594 94.3909 10.6317C93.4266 10.5039 92.4386 10.5359 91.4901 10.7434C90.5416 10.951 89.6286 11.3422 88.8185 11.881C88.0083 12.4199 87.3206 13.1384 86.7831 13.9527L86.7081 13.8809C88.5102 12.4798 91.1186 12.2722 93.146 13.342C94.1696 13.8609 95.0114 14.7151 95.5686 15.725C96.1338 16.7429 96.3432 17.9204 96.3511 19.066C96.3551 20.2116 96.1535 21.3931 95.5884 22.423C95.0351 23.4408 94.1814 24.311 93.142 24.8299C91.079 25.8957 88.4351 25.6961 86.5816 24.2751L86.8424 24.0276C88.1466 26.0913 90.5455 27.2848 92.9563 27.3686C95.3671 27.4844 97.8727 26.4904 99.3903 24.5465C100.161 23.5885 100.694 22.4469 100.939 21.2335C101.188 20.024 101.22 18.7626 101.07 17.5372C100.805 15.0584 99.3191 12.7432 97.1534 11.5458ZM97.1534 11.5458C99.331 12.7273 100.837 15.0384 101.117 17.5212C101.275 18.7546 101.26 20.016 101.03 21.2454C100.805 22.4749 100.279 23.6524 99.5128 24.6383C97.9952 26.6541 95.4342 27.7278 92.9444 27.652C91.6956 27.6241 90.4388 27.3247 89.3243 26.7379C88.198 26.1671 87.2297 25.281 86.5342 24.2232L85.9453 23.3291L86.795 23.9757C88.5339 25.2969 91.0277 25.4566 92.9642 24.4826C93.9404 24.0036 94.7387 23.2053 95.2682 22.2433C95.8018 21.2893 96.0033 20.1677 96.0073 19.062C96.0152 17.9563 95.8373 16.8307 95.3157 15.8567C94.7979 14.8828 94.0075 14.0525 93.0353 13.5376C91.1028 12.4758 88.5537 12.6195 86.7634 13.9647L86.5065 14.1563L86.6883 13.8928C87.2455 13.0785 87.9569 12.368 88.7789 11.8332C89.601 11.2983 90.5179 10.9111 91.4743 10.7075C92.4307 10.5039 93.4226 10.48 94.3869 10.6117C95.3591 10.7474 96.2997 11.0668 97.1534 11.5458Z" fill="black"/>
<path d="M155.665 27.5927C154.143 26.7065 152.926 25.513 152.013 24.0162C151.1 22.5193 150.642 20.8348 150.642 18.9627C150.642 17.0907 151.1 15.3982 152.013 13.8894C152.926 12.3805 154.143 11.183 155.665 10.2929C157.186 9.40677 158.846 8.9637 160.652 8.9637C161.387 8.9637 162.099 9.03954 162.782 9.18324C162.644 9.09542 162.51 9.0076 162.367 8.92378C160.605 7.88995 158.656 7.37103 156.522 7.37103C154.416 7.37103 152.475 7.88995 150.701 8.92378C148.926 9.95761 147.504 11.3587 146.437 13.123C145.369 14.8873 144.836 16.8631 144.836 19.0466C144.836 21.234 145.369 23.2019 146.437 24.9502C147.504 26.6985 148.926 28.0916 150.701 29.1255C152.475 30.1593 154.416 30.6782 156.522 30.6782C158.656 30.6782 160.605 30.1593 162.367 29.1255C162.64 28.9658 162.901 28.7942 163.158 28.6145C162.359 28.8181 161.522 28.9219 160.652 28.9219C158.846 28.9219 157.186 28.4788 155.665 27.5927Z" fill="black"/>
<path d="M155.664 27.5921C153.625 26.4186 151.977 24.5265 151.171 22.2912C150.776 21.1695 150.598 19.9761 150.617 18.7865C150.629 17.597 150.835 16.4075 151.266 15.2939C152.131 13.0705 153.811 11.1905 155.897 10.0528C157.98 8.89127 160.482 8.56795 162.814 9.03896L162.707 9.30241C160.964 8.17676 158.913 7.58999 156.854 7.55008C154.791 7.4902 152.72 7.98516 150.934 9.01501C149.139 10.0329 147.61 11.5138 146.551 13.302C145.476 15.0783 144.974 17.1699 145.009 19.2536C145.029 21.3332 145.59 23.4168 146.733 25.1652C147.843 26.9295 149.436 28.3705 151.277 29.3364C153.115 30.3144 155.23 30.7295 157.304 30.6058C159.387 30.51 161.434 29.8035 163.149 28.598L163.165 28.6339C161.908 28.9453 160.592 29.0091 159.312 28.8455C158.028 28.6818 156.779 28.2507 155.664 27.5921ZM155.664 27.5921C156.783 28.2427 158.032 28.6658 159.312 28.8255C160.592 28.9812 161.901 28.9133 163.153 28.594L163.26 28.5661L163.169 28.6299C161.454 29.8474 159.403 30.5659 157.308 30.6976C155.218 30.8493 153.072 30.4581 151.19 29.4921C149.309 28.5381 147.665 27.0891 146.503 25.3049C145.318 23.5326 144.685 21.3891 144.666 19.2536C144.614 17.118 145.124 14.9466 146.227 13.1024C147.302 11.2543 148.882 9.70157 150.744 8.67173C152.597 7.61794 154.747 7.12297 156.862 7.19482C157.921 7.22276 158.98 7.38243 159.992 7.69777C161.003 8.01311 161.976 8.47214 162.857 9.05892L163.497 9.48602L162.75 9.32636C160.486 8.83938 158.043 9.1148 155.984 10.2245C153.921 11.3142 152.242 13.1424 151.353 15.3298C150.914 16.4235 150.689 17.605 150.673 18.7865C150.649 19.9681 150.819 21.1576 151.206 22.2752C151.997 24.5105 153.629 26.4106 155.664 27.5921Z" fill="black"/>
<path d="M164.216 11.5457C163.007 10.8752 161.699 10.5399 160.296 10.5399C158.893 10.5399 157.584 10.8752 156.375 11.5457C155.34 12.1205 154.482 12.9149 153.802 13.9208C154.008 13.7651 154.229 13.6214 154.458 13.4897C155.352 12.9947 156.32 12.7472 157.359 12.7472C158.399 12.7472 159.367 12.9947 160.26 13.4897C161.153 13.9846 161.876 14.6991 162.426 15.6332C162.975 16.5672 163.248 17.7048 163.248 19.046C163.248 20.3872 162.975 21.5248 162.426 22.4549C161.876 23.3889 161.157 24.0955 160.26 24.5745C159.367 25.0535 158.399 25.2969 157.359 25.2969C156.32 25.2969 155.352 25.0575 154.458 24.5745C154.209 24.4387 153.976 24.2831 153.755 24.1154C154.439 25.1532 155.312 25.9596 156.375 26.5304C157.584 27.181 158.893 27.5043 160.296 27.5043C161.699 27.5043 163.007 27.181 164.216 26.5304C165.425 25.8797 166.402 24.9257 167.144 23.6644C167.884 22.403 168.255 20.8662 168.255 19.054C168.255 17.2418 167.884 15.705 167.144 14.4437C166.398 13.1823 165.421 12.2163 164.216 11.5457Z" fill="black"/>
<path d="M164.216 11.5458C163.358 11.0747 162.418 10.7594 161.453 10.6317C160.489 10.5039 159.501 10.5359 158.553 10.7434C157.604 10.951 156.691 11.3422 155.881 11.881C155.071 12.4199 154.383 13.1384 153.846 13.9527L153.771 13.8809C155.573 12.4798 158.181 12.2722 160.208 13.342C161.232 13.8609 162.074 14.7151 162.631 15.725C163.196 16.7429 163.406 17.9204 163.414 19.066C163.418 20.2116 163.216 21.3931 162.651 22.423C162.098 23.4408 161.244 24.311 160.205 24.8299C158.142 25.8957 155.498 25.6961 153.644 24.2751L153.905 24.0276C155.209 26.0913 157.608 27.2848 160.019 27.3686C162.43 27.4844 164.935 26.4904 166.453 24.5465C167.223 23.5885 167.757 22.4469 168.002 21.2335C168.251 20.024 168.283 18.7626 168.132 17.5372C167.868 15.0584 166.382 12.7432 164.216 11.5458ZM164.216 11.5458C166.393 12.7273 167.899 15.0384 168.18 17.5212C168.338 18.7546 168.322 20.016 168.093 21.2454C167.868 22.4749 167.342 23.6524 166.575 24.6383C165.058 26.6541 162.497 27.7278 160.007 27.652C158.758 27.6241 157.501 27.3247 156.387 26.7379C155.26 26.1671 154.292 25.281 153.597 24.2232L153.008 23.3291L153.858 23.9757C155.596 25.2969 158.09 25.4566 160.027 24.4826C161.003 24.0036 161.801 23.2053 162.331 22.2433C162.864 21.2893 163.066 20.1677 163.07 19.062C163.078 17.9563 162.9 16.8307 162.378 15.8567C161.86 14.8828 161.07 14.0525 160.098 13.5376C158.165 12.4758 155.616 12.6195 153.826 13.9647L153.569 14.1563L153.751 13.8928C154.308 13.0785 155.019 12.368 155.841 11.8332C156.663 11.2983 157.58 10.9111 158.537 10.7075C159.493 10.5039 160.485 10.48 161.449 10.6117C162.422 10.7474 163.362 11.0668 164.216 11.5458Z" fill="black"/>
<path d="M201.511 27.5921C199.99 26.7059 198.772 25.5124 197.86 24.0156C196.947 22.5187 196.488 20.8342 196.488 18.9621C196.488 17.0901 196.947 15.3976 197.86 13.8888C198.772 12.3799 199.99 11.1824 201.511 10.2923C203.033 9.40616 204.693 8.96309 206.499 8.96309C207.234 8.96309 207.945 9.03893 208.629 9.18263C208.491 9.09481 208.356 9.00699 208.214 8.92317C206.451 7.88934 204.503 7.37042 202.369 7.37042C200.262 7.37042 198.322 7.88934 196.547 8.92317C194.773 9.957 193.35 11.3581 192.283 13.1224C191.216 14.8867 190.683 16.8625 190.683 19.046C190.683 21.2334 191.216 23.2013 192.283 24.9496C193.35 26.6979 194.773 28.091 196.547 29.1249C198.322 30.1587 200.262 30.6776 202.369 30.6776C204.503 30.6776 206.451 30.1587 208.214 29.1249C208.487 28.9652 208.748 28.7935 209.004 28.6139C208.206 28.8175 207.368 28.9213 206.499 28.9213C204.693 28.9213 203.033 28.4782 201.511 27.5921Z" fill="black"/>
<path d="M201.512 27.5921C199.473 26.4186 197.825 24.5265 197.018 22.2912C196.623 21.1695 196.445 19.9761 196.465 18.7865C196.477 17.597 196.682 16.4075 197.113 15.2939C197.979 13.0705 199.658 11.1905 201.745 10.0528C203.828 8.89127 206.329 8.56795 208.661 9.03896L208.555 9.30241C206.812 8.17676 204.761 7.58999 202.701 7.55008C200.639 7.4902 198.568 7.98516 196.781 9.01501C194.987 10.0329 193.458 11.5138 192.398 13.302C191.323 15.0783 190.822 17.1699 190.857 19.2536C190.877 21.3332 191.438 23.4168 192.58 25.1652C193.691 26.9295 195.283 28.3705 197.125 29.3364C198.963 30.3144 201.077 30.7295 203.152 30.6058C205.235 30.51 207.282 29.8035 208.997 28.598L209.013 28.6339C207.756 28.9453 206.44 29.0091 205.16 28.8455C203.875 28.6818 202.63 28.2507 201.512 27.5921ZM201.512 27.5921C202.63 28.2427 203.879 28.6658 205.16 28.8255C206.44 28.9812 207.748 28.9133 209.001 28.594L209.108 28.5661L209.017 28.6299C207.302 29.8474 205.251 30.5659 203.156 30.6976C201.065 30.8493 198.919 30.4581 197.038 29.4921C195.157 28.5381 193.513 27.0891 192.351 25.3049C191.165 23.5326 190.533 21.3891 190.513 19.2536C190.462 17.118 190.972 14.9466 192.074 13.1024C193.149 11.2543 194.73 9.70157 196.592 8.67173C198.445 7.61794 200.595 7.12297 202.709 7.19482C203.769 7.22276 204.828 7.38243 205.839 7.69777C206.851 8.01311 207.823 8.47214 208.705 9.05892L209.345 9.48602L208.598 9.32636C206.337 8.83938 203.891 9.1148 201.832 10.2245C199.769 11.3142 198.089 13.1424 197.2 15.3298C196.762 16.4235 196.536 17.605 196.52 18.7865C196.497 19.9681 196.667 21.1576 197.054 22.2752C197.848 24.5105 199.481 26.4106 201.512 27.5921Z" fill="black"/>
<path d="M210.065 11.5457C208.855 10.8752 207.547 10.5399 206.144 10.5399C204.741 10.5399 203.433 10.8752 202.224 11.5457C201.188 12.1205 200.331 12.9149 199.651 13.9208C199.856 13.7651 200.078 13.6214 200.307 13.4897C201.2 12.9947 202.168 12.7472 203.208 12.7472C204.247 12.7472 205.215 12.9947 206.109 13.4897C207.002 13.9846 207.725 14.6991 208.274 15.6332C208.824 16.5672 209.096 17.7048 209.096 19.046C209.096 20.3872 208.824 21.5248 208.274 22.4549C207.725 23.3889 207.006 24.0955 206.109 24.5745C205.215 25.0535 204.247 25.2969 203.208 25.2969C202.168 25.2969 201.2 25.0575 200.307 24.5745C200.058 24.4387 199.825 24.2831 199.604 24.1154C200.287 25.1532 201.161 25.9596 202.224 26.5304C203.433 27.181 204.741 27.5043 206.144 27.5043C207.547 27.5043 208.855 27.181 210.065 26.5304C211.274 25.8797 212.25 24.9257 212.993 23.6644C213.732 22.403 214.104 20.8662 214.104 19.054C214.104 17.2418 213.732 15.705 212.993 14.4437C212.25 13.1823 211.274 12.2163 210.065 11.5457Z" fill="black"/>
<path d="M210.065 11.5458C209.207 11.0747 208.266 10.7594 207.302 10.6317C206.338 10.5039 205.35 10.5359 204.401 10.7434C203.453 10.951 202.54 11.3422 201.73 11.881C200.919 12.4199 200.232 13.1384 199.694 13.9527L199.619 13.8809C201.421 12.4798 204.03 12.2722 206.057 13.342C207.081 13.8609 207.923 14.7151 208.48 15.725C209.045 16.7429 209.254 17.9204 209.262 19.066C209.262 20.2116 209.065 21.3931 208.5 22.423C207.946 23.4408 207.093 24.311 206.053 24.8299C203.99 25.8957 201.346 25.6961 199.493 24.2751L199.754 24.0276C201.058 26.0913 203.457 27.2848 205.867 27.3686C208.278 27.4844 210.784 26.4904 212.301 24.5465C213.072 23.5885 213.606 22.4469 213.851 21.2335C214.1 20.024 214.131 18.7626 213.981 17.5372C213.716 15.0584 212.23 12.7432 210.065 11.5458ZM210.065 11.5458C212.242 12.7273 213.748 15.0384 214.028 17.5212C214.187 18.7546 214.171 20.016 213.942 21.2454C213.716 22.4749 213.191 23.6524 212.424 24.6383C210.906 26.6541 208.345 27.7278 205.856 27.652C204.607 27.6241 203.35 27.3247 202.235 26.7379C201.109 26.1671 200.141 25.281 199.445 24.2232L198.856 23.3291L199.706 23.9757C201.445 25.2969 203.939 25.4566 205.875 24.4826C206.851 24.0036 207.65 23.2053 208.179 22.2433C208.713 21.2893 208.914 20.1677 208.918 19.062C208.926 17.9563 208.748 16.8307 208.227 15.8567C207.709 14.8828 206.919 14.0525 205.946 13.5376C204.014 12.4758 201.465 12.6195 199.675 13.9647L199.418 14.1563L199.599 13.8928C200.157 13.0785 200.868 12.368 201.69 11.8332C202.512 11.2983 203.429 10.9111 204.385 10.7075C205.342 10.5039 206.334 10.48 207.298 10.6117C208.27 10.7474 209.211 11.0668 210.065 11.5458Z" fill="black"/>
<path d="M52.0961 26.1511C52.9616 24.7381 53.3963 23.0536 53.3963 21.1017V7.94128H47.8121V20.0958C47.8121 21.8162 47.4129 23.0975 46.6225 23.9438C45.8281 24.79 44.7966 25.2131 43.528 25.2131C43.0854 25.2131 42.6744 25.1612 42.291 25.0614C42.6665 25.8358 43.1684 26.5862 43.8442 27.2249C43.9667 27.3406 44.0932 27.4524 44.2236 27.5562C46.6936 29.544 50.4046 28.8974 52.0763 26.191C52.0803 26.1791 52.0882 26.1631 52.0961 26.1511Z" fill="black"/>
<path d="M52.0959 26.1511C52.8981 24.8379 53.2854 23.3051 53.3566 21.7723C53.3842 20.2395 53.3605 18.6987 53.3487 17.1619L53.2538 7.93725L53.3922 8.07696C51.5307 8.10091 49.6693 8.11288 47.8079 8.11687L47.9857 7.93725L48.0015 13.1942L47.9818 18.4512L47.9778 19.7645C47.9818 20.1996 47.9699 20.6506 47.9185 21.0937C47.8158 21.9759 47.5787 22.874 47.0491 23.6164C46.5195 24.3509 45.7489 24.8937 44.8873 25.1332C44.0258 25.3648 43.1207 25.3568 42.2671 25.1372L42.358 25.0255C42.7888 25.9435 43.3855 26.7898 44.1641 27.4404C44.9268 28.103 45.8951 28.5221 46.8989 28.6459C47.4008 28.7097 47.9106 28.6898 48.4086 28.6179C48.9026 28.5181 49.4006 28.3944 49.8551 28.1629C50.7719 27.7358 51.5505 27.0133 52.0959 26.1511ZM52.0959 26.1511C51.5584 27.0173 50.7838 27.7478 49.863 28.1828C49.4085 28.4184 48.9105 28.5501 48.4126 28.6539C47.9106 28.7297 47.3969 28.7537 46.891 28.6938C46.3891 28.6259 45.8832 28.5142 45.4169 28.3026C45.1758 28.2148 44.9584 28.0791 44.7292 27.9593C44.5158 27.8196 44.2985 27.6759 44.1008 27.5162C43.2986 26.8736 42.6742 26.0234 42.2157 25.0973L42.1406 24.9456L42.3066 24.9855C43.1326 25.1811 44.0218 25.1692 44.832 24.9297C45.6422 24.6902 46.3614 24.1593 46.8357 23.4647C47.3139 22.7662 47.5233 21.912 47.6024 21.0618C47.6459 20.6307 47.6419 20.2076 47.6419 19.7645L47.6379 18.4512L47.6182 13.1942L47.634 7.93725V7.75763H47.8118C49.6733 7.76162 51.5347 7.7736 53.3961 7.79755H53.5384V7.93725L53.4435 17.1619C53.4159 18.6987 53.4435 20.2355 53.3961 21.7763C53.3092 23.3091 52.9061 24.8458 52.0959 26.1511Z" fill="black"/>
<path d="M39.2277 19.4452H39.2317L39.1922 7.93726H33.6514V21.0977C33.6514 23.0496 34.0782 24.7341 34.9279 26.1471C35.7776 27.5602 36.9474 28.6459 38.4334 29.4043C39.9193 30.1627 41.6148 30.5419 43.5197 30.5419C44.0967 30.5419 44.65 30.502 45.1914 30.4301C44.1599 30.011 43.243 29.4402 42.4526 28.6938C38.8246 25.265 39.2119 19.6807 39.2277 19.4452Z" fill="black"/>
<path d="M39.2281 19.4452H39.232L39.1372 13.6932L39.066 7.94127L39.1925 8.069L33.6517 8.10892L33.8177 7.94127L33.8375 15.5214L33.8454 19.3134C33.8651 20.5788 33.7861 21.8441 34.0074 23.0616C34.3868 25.5125 35.8886 27.7478 38.0227 28.9852C40.1489 30.2465 42.7296 30.5898 45.1759 30.2984L45.1404 30.5699C44.1049 30.1428 43.1327 29.532 42.3304 28.7417C41.5203 27.9593 40.8761 27.0133 40.3979 25.9994C39.9236 24.9816 39.5996 23.8998 39.4138 22.7942C39.232 21.6845 39.153 20.5628 39.2281 19.4452ZM39.2281 19.4452C39.1806 20.5588 39.2874 21.6765 39.5008 22.7702C39.7142 23.8639 40.062 24.9257 40.556 25.9156C41.0539 26.9015 41.6902 27.8196 42.4925 28.5661C43.2829 29.3245 44.2353 29.9033 45.2471 30.3024L45.7411 30.498L45.2115 30.5739C43.9587 30.7495 42.6822 30.7375 41.4254 30.5499C40.1726 30.3503 38.9475 29.9352 37.8449 29.2885C35.6198 28.0152 34.0311 25.6761 33.624 23.1255C33.5134 22.4908 33.4581 21.8481 33.4541 21.2095L33.4581 19.3134L33.466 15.5214L33.4857 7.94127V7.77362H33.6517L39.1925 7.81354H39.319V7.93728L39.2874 13.6932L39.236 19.4492L39.2281 19.4452Z" fill="black"/>
<path d="M237.306 26.1511C238.172 24.7381 238.606 23.0536 238.606 21.1017V7.94128H233.022V20.0958C233.022 21.8162 232.623 23.0975 231.832 23.9438C231.038 24.79 230.007 25.2131 228.738 25.2131C228.295 25.2131 227.884 25.1612 227.501 25.0614C227.876 25.8358 228.378 26.5862 229.054 27.2249C229.177 27.3406 229.303 27.4524 229.434 27.5562C231.904 29.544 235.615 28.8974 237.286 26.191C237.294 26.1791 237.302 26.1631 237.306 26.1511Z" fill="black"/>
<path d="M237.306 26.1511C238.108 24.8379 238.495 23.3051 238.567 21.7723C238.594 20.2395 238.571 18.6987 238.559 17.1619L238.464 7.93725L238.602 8.07696C236.741 8.10091 234.879 8.11288 233.018 8.11687L233.196 7.93725L233.211 13.1942L233.192 18.4512L233.188 19.7645C233.192 20.1996 233.18 20.6506 233.129 21.0937C233.026 21.9759 232.789 22.874 232.259 23.6164C231.729 24.3509 230.959 24.8937 230.097 25.1332C229.236 25.3648 228.331 25.3568 227.477 25.1372L227.568 25.0255C227.999 25.9435 228.595 26.7898 229.374 27.4404C230.137 28.103 231.105 28.5221 232.109 28.6459C232.611 28.7097 233.121 28.6898 233.619 28.6179C234.113 28.5181 234.611 28.3944 235.065 28.1629C235.986 27.7358 236.764 27.0133 237.306 26.1511ZM237.306 26.1511C236.768 27.0173 235.994 27.7478 235.073 28.1828C234.618 28.4184 234.12 28.5501 233.623 28.6539C233.121 28.7297 232.607 28.7537 232.101 28.6938C231.599 28.6259 231.093 28.5142 230.627 28.3026C230.386 28.2148 230.168 28.0791 229.939 27.9593C229.726 27.8196 229.508 27.6759 229.311 27.5162C228.509 26.8736 227.884 26.0234 227.426 25.0973L227.351 24.9456L227.517 24.9855C228.343 25.1811 229.232 25.1692 230.042 24.9297C230.852 24.6902 231.571 24.1593 232.046 23.4647C232.524 22.7662 232.733 21.912 232.812 21.0618C232.856 20.6307 232.852 20.2076 232.852 19.7645L232.848 18.4512L232.828 13.1942L232.844 7.93725V7.75763H233.022C234.883 7.76162 236.745 7.7736 238.606 7.79755H238.748V7.93725L238.653 17.1619C238.626 18.6987 238.653 20.2355 238.606 21.7763C238.523 23.3091 238.12 24.8458 237.306 26.1511Z" fill="black"/>
<path d="M224.442 19.4452H224.446L224.406 7.93726H218.865V21.0977C218.865 23.0496 219.292 24.7341 220.142 26.1471C220.991 27.5602 222.161 28.6459 223.647 29.4043C225.133 30.1627 226.829 30.5419 228.734 30.5419C229.311 30.5419 229.864 30.502 230.405 30.4301C229.374 30.011 228.457 29.4402 227.667 28.6938C224.039 25.265 224.422 19.6807 224.442 19.4452Z" fill="black"/>
<path d="M224.442 19.4452H224.446L224.351 13.6932L224.28 7.94127L224.406 8.069L218.866 8.10892L219.032 7.94127L219.051 15.5214L219.059 19.3134C219.079 20.5788 219 21.8441 219.221 23.0616C219.601 25.5125 221.102 27.7478 223.237 28.9852C225.363 30.2465 227.943 30.5898 230.39 30.2984L230.354 30.5699C229.319 30.1428 228.347 29.532 227.544 28.7417C226.734 27.9593 226.09 27.0133 225.612 25.9994C225.138 24.9816 224.813 23.8998 224.628 22.7942C224.446 21.6845 224.367 20.5628 224.442 19.4452ZM224.442 19.4452C224.395 20.5588 224.501 21.6765 224.715 22.7702C224.928 23.8639 225.276 24.9257 225.77 25.9156C226.268 26.9015 226.904 27.8196 227.706 28.5661C228.497 29.3245 229.449 29.9033 230.461 30.3024L230.955 30.498L230.425 30.5739C229.173 30.7495 227.896 30.7375 226.639 30.5499C225.386 30.3503 224.161 29.9352 223.059 29.2885C220.834 28.0152 219.245 25.6761 218.838 23.1255C218.727 22.4908 218.672 21.8481 218.668 21.2095L218.672 19.3134L218.68 15.5214L218.7 7.94127V7.77362H218.866L224.406 7.81354H224.533V7.93728L224.501 13.6932L224.45 19.4492L224.442 19.4452Z" fill="black"/>
<path d="M62.0957 13.8102V23.5498C62.0957 25.7652 62.7083 27.5055 63.9374 28.7749C65.1625 30.0442 66.7591 30.6789 68.7233 30.6789C69.9643 30.6789 70.9958 30.4873 71.8178 30.1121C72.6398 29.7329 73.3275 29.2658 73.8729 28.711V24.2962C73.3828 24.6156 72.8572 24.8631 72.292 25.0387C71.7309 25.2143 71.059 25.3021 70.2804 25.3021C69.3873 25.3021 68.7154 25.0187 68.2688 24.4479C67.8223 23.8811 67.597 23.0988 67.597 22.1088V12.5768H73.6595V7.9425H69.6165C68.8775 8.16204 68.1621 8.43747 67.4824 8.78474C65.1309 9.97824 63.3841 11.8383 62.0957 13.8102Z" fill="black"/>
<path d="M62.0949 13.8089L62.1621 20.439L62.1977 23.7441C62.2254 24.8338 62.3992 25.9315 62.8419 26.9215C63.2727 27.9114 63.984 28.7736 64.8574 29.3923C65.7308 30.019 66.7742 30.3702 67.8373 30.47C68.9004 30.5618 70.003 30.506 71.0227 30.2186C71.5325 30.0749 72.0146 29.8354 72.477 29.5639C72.9355 29.2885 73.3662 28.9652 73.7377 28.586L73.6864 28.7137L73.6784 24.299L73.967 24.4546C73.3188 24.8777 72.6035 25.1891 71.8447 25.3527C71.4653 25.4326 71.0819 25.4725 70.7025 25.4885C70.3271 25.5044 69.9319 25.5124 69.5367 25.4286C69.1454 25.3488 68.7581 25.1851 68.442 24.9216C68.1218 24.6582 67.8926 24.3109 67.7306 23.9437C67.4026 23.2052 67.3828 22.383 67.3986 21.6405L67.4144 12.5795V12.4039H67.5883L73.6508 12.4238L73.4967 12.5795L73.5243 7.9452L73.6508 8.07293L69.6078 8.04898L69.6355 8.04499C68.8648 8.26852 68.106 8.54794 67.3907 8.91916C66.6754 9.28639 65.9877 9.72148 65.3554 10.2244C64.0868 11.2183 63.0039 12.4558 62.0949 13.8089ZM62.0949 13.8089C62.9723 12.4398 64.0315 11.1704 65.2961 10.1366C66.5529 9.09878 68.0191 8.30445 69.5841 7.84142L69.596 7.83743H69.6118L73.6547 7.81348H73.7812V7.94121L73.8089 12.5755V12.7272H73.6547L67.5923 12.7471L67.7662 12.5715L67.782 21.6325C67.7701 22.3909 67.7978 23.1214 68.0902 23.776C68.2325 24.0954 68.438 24.3908 68.6949 24.6063C68.9557 24.8258 69.2758 24.9656 69.6157 25.0334C69.9556 25.1053 70.3152 25.1053 70.6867 25.0893C71.0503 25.0733 71.4139 25.0374 71.7696 24.9656C72.4731 24.8179 73.1568 24.5265 73.7654 24.1313L74.0539 23.9437V24.287L74.046 28.7017V28.7776L73.9946 28.8295C73.5955 29.2326 73.141 29.5719 72.6588 29.8553C72.1767 30.1347 71.6669 30.3862 71.1215 30.5379C70.0346 30.8373 68.9162 30.8931 67.8057 30.7814C66.6991 30.6616 65.6004 30.2824 64.6954 29.6118C63.7864 28.9532 63.0553 28.0471 62.6206 27.0093C62.174 25.9754 62.008 24.8458 61.9922 23.7361L62.0198 20.4151L62.0949 13.8089Z" fill="black"/>
<path d="M66.5613 6.97167C66.9012 6.80003 67.245 6.64036 67.5968 6.49666V1.51111H64.7829C64.0913 3.75441 63.1586 5.56262 61.9888 6.93175C60.819 8.30089 59.5425 9.23493 58.1553 9.72989V12.5719H60.4712C61.9176 10.4005 63.8858 8.3408 66.5613 6.97167Z" fill="black"/>
<path d="M66.5605 6.97128L67.5919 6.48829L67.588 6.49627C67.5761 4.83575 67.5722 3.17124 67.5366 1.51072L67.5959 1.57059L64.782 1.62248L64.8848 1.54664C64.6279 2.42879 64.3236 3.29897 63.9402 4.1412C63.5608 4.98344 63.0945 5.78576 62.5452 6.5322C61.9879 7.27464 61.3595 7.95721 60.6324 8.53999C59.9091 9.11878 59.091 9.59378 58.2137 9.90114L58.3323 9.73349C58.3283 10.6795 58.3164 11.6295 58.2967 12.5755L58.1544 12.4318L60.4703 12.4718L60.3873 12.5157C61.1856 11.3581 62.1065 10.2923 63.138 9.35029C64.1655 8.40827 65.3156 7.59796 66.5605 6.97128ZM66.5605 6.97128C65.3274 7.61393 64.1892 8.43621 63.1775 9.3942C62.1737 10.3602 61.3042 11.4579 60.5533 12.6274L60.5256 12.6713H60.4703L58.1544 12.7113L58.0161 12.7152L58.0121 12.5715C57.9924 11.6255 57.9805 10.6755 57.9766 9.7295V9.60576L58.0951 9.56185C58.9251 9.25449 59.6997 8.79546 60.3873 8.22864C61.075 7.66582 61.7073 7.01519 62.2527 6.30467C62.802 5.59416 63.2526 4.80781 63.6557 3.9975C64.0588 3.1872 64.3868 2.33698 64.6753 1.47479L64.703 1.39496H64.782L67.5959 1.44685H67.6552V1.50672C67.6196 3.16725 67.6196 4.83176 67.6038 6.49228V6.49627L67.5999 6.50026L66.5605 6.97128Z" fill="black"/>
<path d="M175.006 13.8102V23.5498C175.006 25.7652 175.618 27.5055 176.848 28.7749C178.073 30.0442 179.669 30.6789 181.633 30.6789C182.874 30.6789 183.906 30.4873 184.728 30.1121C185.55 29.7329 186.238 29.2658 186.783 28.711V24.2962C186.293 24.6156 185.767 24.8631 185.202 25.0387C184.641 25.2143 183.969 25.3021 183.191 25.3021C182.297 25.3021 181.626 25.0187 181.179 24.4479C180.732 23.8811 180.507 23.0988 180.507 22.1088V12.5768H186.57V7.9425H182.527C181.788 8.16204 181.072 8.43747 180.393 8.78474C178.041 9.97824 176.298 11.8383 175.006 13.8102Z" fill="black"/>
<path d="M175.005 13.8089L175.072 20.439L175.108 23.7441C175.136 24.8338 175.309 25.9315 175.752 26.9215C176.183 27.9114 176.894 28.7736 177.768 29.3923C178.637 30.019 179.684 30.3702 180.748 30.47C181.811 30.5618 182.913 30.506 183.933 30.2186C184.443 30.0749 184.925 29.8354 185.387 29.5639C185.846 29.2885 186.276 28.9652 186.648 28.586L186.597 28.7137L186.589 24.299L186.877 24.4546C186.229 24.8777 185.518 25.1891 184.755 25.3527C184.376 25.4326 183.992 25.4725 183.613 25.4885C183.237 25.5044 182.842 25.5124 182.447 25.4286C182.056 25.3488 181.668 25.1851 181.352 24.9216C181.032 24.6582 180.803 24.3109 180.641 23.9437C180.313 23.2052 180.293 22.383 180.309 21.6405L180.325 12.5795V12.4039H180.499L186.561 12.4238L186.407 12.5795L186.435 7.9452L186.561 8.07293L182.518 8.04898L182.546 8.04499C181.775 8.26852 181.016 8.54794 180.301 8.91916C179.586 9.28639 178.898 9.72148 178.266 10.2244C176.997 11.2183 175.914 12.4558 175.005 13.8089ZM175.005 13.8089C175.883 12.4398 176.942 11.1704 178.206 10.1366C179.463 9.09878 180.929 8.30445 182.494 7.84142L182.506 7.83743H182.522L186.565 7.81348H186.687V7.94121L186.715 12.5755V12.7272H186.561L180.499 12.7471L180.672 12.5715L180.688 21.6325C180.676 22.3909 180.704 23.1214 180.996 23.776C181.139 24.0954 181.344 24.3908 181.601 24.6063C181.862 24.8258 182.182 24.9656 182.522 25.0334C182.862 25.1053 183.222 25.1053 183.593 25.0893C183.957 25.0733 184.32 25.0374 184.676 24.9656C185.379 24.8179 186.063 24.5265 186.672 24.1313L186.96 23.9437V24.287L186.952 28.7017V28.7776L186.901 28.8295C186.502 29.2326 186.047 29.5719 185.565 29.8553C185.083 30.1347 184.573 30.3862 184.028 30.5379C182.941 30.8373 181.822 30.8931 180.712 30.7814C179.605 30.6616 178.507 30.2824 177.602 29.6118C176.693 28.9532 175.962 28.0471 175.527 27.0093C175.08 25.9754 174.914 24.8458 174.898 23.7361L174.926 20.4151L175.005 13.8089Z" fill="black"/>
<path d="M179.472 6.97167C179.812 6.80003 180.156 6.64036 180.508 6.49666V1.51111H177.694C177.002 3.75441 176.07 5.56262 174.9 6.93175C173.73 8.30089 172.454 9.23493 171.066 9.72989V12.5719H173.382C174.829 10.4005 176.797 8.3408 179.472 6.97167Z" fill="black"/>
<path d="M179.472 6.97128L180.503 6.48829L180.499 6.49627C180.487 4.83575 180.483 3.17124 180.448 1.51072L180.507 1.57059L177.693 1.62248L177.796 1.54664C177.539 2.42879 177.235 3.29897 176.851 4.1412C176.472 4.98344 176.006 5.78576 175.456 6.5322C174.899 7.27464 174.271 7.95721 173.543 8.53999C172.82 9.11878 172.002 9.59378 171.125 9.90114L171.243 9.73349C171.239 10.6795 171.228 11.6295 171.208 12.5755L171.066 12.4318L173.381 12.4718L173.298 12.5157C174.097 11.3581 175.018 10.2923 176.049 9.35029C177.077 8.40827 178.231 7.59796 179.472 6.97128ZM179.472 6.97128C178.239 7.61393 177.1 8.43621 176.089 9.3942C175.085 10.3602 174.215 11.4579 173.464 12.6274L173.437 12.6713H173.381L171.066 12.7113L170.927 12.7152L170.923 12.5715C170.904 11.6255 170.892 10.6755 170.888 9.7295V9.60576L171.006 9.56185C171.836 9.25449 172.611 8.79546 173.298 8.22864C173.986 7.66582 174.618 7.01519 175.164 6.30467C175.713 5.59416 176.164 4.80781 176.567 3.9975C176.97 3.1872 177.298 2.33698 177.586 1.47479L177.614 1.39496H177.693L180.507 1.44685H180.566V1.50672C180.531 3.16725 180.531 4.83176 180.515 6.49228V6.49627L180.511 6.50026L179.472 6.97128Z" fill="black"/>
<path d="M253.893 23.0096C253.956 23.1812 253.988 23.3648 253.988 23.5644C253.988 24.3069 253.684 24.8817 253.083 25.2848C252.478 25.688 251.617 25.8876 250.498 25.8876C249.791 25.8876 249.008 25.7758 248.155 25.5523C247.301 25.3287 246.475 25.0373 245.681 24.6821C244.886 24.3228 244.207 23.9516 243.649 23.5644V28.518C244.384 29.0849 245.463 29.6038 246.874 30.0788C247.803 30.3901 248.755 30.5897 249.724 30.6975C252.182 30.9689 254.96 30.7134 256.999 29.2046C258.09 28.3983 258.651 27.2008 258.651 25.8676C258.647 24.2071 257.181 23.6163 253.893 23.0096Z" fill="black"/>
<path d="M253.892 23.0096C253.991 23.2571 254.015 23.5285 253.995 23.7919C253.979 24.0594 253.912 24.3228 253.794 24.5663C253.549 25.0533 253.09 25.3966 252.604 25.6041C252.11 25.8117 251.58 25.9115 251.055 25.9554C250.525 26.0033 249.992 25.9873 249.466 25.9235C248.411 25.7918 247.391 25.4964 246.395 25.1331C245.407 24.7539 244.439 24.3109 243.554 23.7041L243.819 23.5644L243.834 28.518L243.759 28.3704C244.538 28.9531 245.451 29.3563 246.38 29.6956C247.308 30.0468 248.257 30.3023 249.237 30.446C251.185 30.7254 253.217 30.6975 255.074 30.0349C255.536 29.8712 255.987 29.6716 256.406 29.4162C256.825 29.1607 257.232 28.8853 257.548 28.518C258.204 27.7996 258.556 26.8176 258.548 25.8357C258.548 25.3527 258.39 24.8737 258.038 24.5384C257.698 24.1911 257.244 23.9676 256.785 23.788C255.849 23.4327 254.865 23.2251 253.892 23.0096ZM253.892 23.0096C254.876 23.1732 255.868 23.3449 256.821 23.6722C257.291 23.8438 257.769 24.0514 258.149 24.4146C258.346 24.5863 258.493 24.8178 258.599 25.0573C258.706 25.3048 258.738 25.5722 258.75 25.8317C258.781 26.8655 258.433 27.9193 257.746 28.7057C257.41 29.1088 256.983 29.4122 256.556 29.6876C256.125 29.963 255.659 30.1826 255.181 30.3582C253.252 31.0567 251.169 31.0966 249.178 30.8252C248.178 30.6855 247.182 30.43 246.241 30.0708C245.297 29.7115 244.36 29.3004 243.534 28.6697L243.459 28.6139V28.522L243.475 23.5684V23.2451L243.74 23.4247C244.589 24.0075 245.53 24.4785 246.494 24.8657C247.462 25.2449 248.466 25.5523 249.49 25.7039C250.004 25.7798 250.521 25.7997 251.039 25.7758C251.557 25.7518 252.074 25.672 252.557 25.4884C253.035 25.3008 253.481 24.9934 253.734 24.5344C253.857 24.3069 253.936 24.0514 253.964 23.7919C253.987 23.5325 253.979 23.2611 253.892 23.0096Z" fill="black"/>
<path d="M248.4 14.8713C248.337 14.6997 248.305 14.5161 248.305 14.3165C248.305 13.574 248.609 12.9992 249.21 12.5961C249.815 12.1929 250.676 11.9934 251.795 11.9934C252.502 11.9934 253.285 12.1051 254.138 12.3286C254.992 12.5522 255.818 12.8436 256.612 13.1988C257.407 13.5581 258.086 13.9293 258.644 14.3165V9.36286C257.909 8.79605 256.834 8.27714 255.419 7.80213C254.49 7.49078 253.538 7.2912 252.569 7.18343C250.111 6.912 247.333 7.16746 245.294 8.6763C244.203 9.48261 243.642 10.6801 243.642 12.0133C243.646 13.6738 245.116 14.2646 248.4 14.8713Z" fill="black"/>
<path d="M248.399 14.8707C248.3 14.6232 248.277 14.3518 248.296 14.0883C248.312 13.8209 248.379 13.5574 248.498 13.314C248.743 12.827 249.201 12.4837 249.687 12.2761C250.181 12.0686 250.711 11.9688 251.237 11.9249C251.766 11.877 252.3 11.8929 252.825 11.9568C253.881 12.0885 254.9 12.3839 255.896 12.7471C256.884 13.1264 257.852 13.5694 258.738 14.1761L258.473 14.3159L258.457 9.36224L258.532 9.50993C257.754 8.92715 256.841 8.52399 255.912 8.1847C254.983 7.83344 254.035 7.57797 253.055 7.43427C251.106 7.15486 249.075 7.1868 247.217 7.84542C246.755 8.00907 246.305 8.20865 245.886 8.46412C245.467 8.71958 245.06 8.99501 244.743 9.36224C244.087 10.0807 243.736 11.0627 243.744 12.0446C243.744 12.5276 243.902 13.0066 244.253 13.3419C244.589 13.6892 245.048 13.9127 245.506 14.0923C246.443 14.4516 247.427 14.6591 248.399 14.8707ZM248.399 14.8707C247.415 14.707 246.423 14.5354 245.471 14.2081C245 14.0364 244.522 13.8289 244.143 13.4656C243.945 13.294 243.799 13.0625 243.692 12.823C243.585 12.5755 243.554 12.3081 243.542 12.0486C243.51 11.0148 243.858 9.96098 244.546 9.17463C244.882 8.77147 245.309 8.46811 245.735 8.19269C246.166 7.91726 246.633 7.69772 247.111 7.52209C249.039 6.82355 251.122 6.78364 253.114 7.05507C254.114 7.19478 255.11 7.45024 256.05 7.80949C256.995 8.16874 257.931 8.57988 258.757 9.21055L258.833 9.26644V9.35824L258.817 14.3119V14.6352L258.552 14.4556C257.702 13.8728 256.762 13.4018 255.797 13.0146C254.829 12.6354 253.825 12.324 252.802 12.1763C252.288 12.1005 251.77 12.0805 251.252 12.1045C250.735 12.1284 250.217 12.2083 249.735 12.3919C249.257 12.5795 248.81 12.8869 248.557 13.3459C248.435 13.5734 248.356 13.8289 248.328 14.0883C248.304 14.3518 248.312 14.6192 248.399 14.8707Z" fill="black"/>
<path d="M259.185 23.9276C259.201 23.728 259.209 23.5285 259.209 23.3209C259.209 23.3129 259.209 23.3049 259.209 23.2969C259.205 21.9318 258.592 20.6225 257.557 19.7444C255.094 17.6488 251.988 17.086 249.162 16.575C247.254 16.2317 245.325 15.8845 244.037 14.9345C243.649 14.5952 243.337 14.192 243.124 13.701C243.116 13.7849 243.108 13.8687 243.1 13.9525C243.084 14.1521 243.076 14.3517 243.076 14.5593C243.076 14.5672 243.076 14.5752 243.076 14.5832C243.08 15.9483 243.693 17.2576 244.728 18.1358C247.19 20.2314 250.297 20.7942 253.122 21.3051C255.031 21.6484 256.96 21.9957 258.248 22.9457C258.635 23.285 258.948 23.6881 259.161 24.1791C259.173 24.0953 259.181 24.0114 259.185 23.9276Z" fill="black"/>
<path d="M259.184 23.9276C259.244 23.1253 259.137 22.311 258.821 21.5765C258.508 20.8461 258.014 20.1994 257.386 19.7204C256.149 18.7225 254.683 18.0559 253.169 17.6129C251.648 17.1658 250.079 16.9183 248.506 16.6349C247.719 16.4912 246.929 16.3395 246.154 16.112C245.38 15.8845 244.605 15.5851 243.929 15.0941L243.925 15.0901L243.917 15.0821C243.51 14.7309 243.17 14.2838 242.949 13.7809L243.325 13.721L243.301 13.9685L242.933 14.0523L243.301 13.9525V13.9605V13.9685C243.222 14.7548 243.305 15.5292 243.597 16.2477C243.886 16.9622 244.352 17.6049 244.961 18.0839C246.17 19.0977 247.62 19.7723 249.126 20.2433C250.636 20.7223 252.205 21.0017 253.77 21.3011C254.552 21.4528 255.339 21.6205 256.106 21.8639C256.868 22.1074 257.623 22.4188 258.271 22.9058C258.659 23.253 258.967 23.6881 259.164 24.1671H259.153L259.184 23.9276ZM259.184 23.9276L259.164 24.1791V24.1991L259.157 24.1791C258.939 23.7081 258.611 23.3009 258.224 22.9736H258.228C257.58 22.5146 256.825 22.2352 256.062 22.0196C255.299 21.8081 254.517 21.6644 253.734 21.5247C252.165 21.2572 250.581 21.0137 249.035 20.5547C247.494 20.0996 245.996 19.4051 244.735 18.3673C244.087 17.8563 243.57 17.1618 243.253 16.3914C242.933 15.621 242.835 14.7508 242.914 13.9326V13.9485L243.281 13.8487L242.914 13.9326L242.937 13.6771L243.012 12.9227L243.313 13.6212C243.506 14.0683 243.803 14.4674 244.17 14.7908L244.158 14.7828C244.775 15.2378 245.514 15.5332 246.261 15.7607C247.012 15.9882 247.79 16.1439 248.573 16.2916C250.138 16.579 251.723 16.8504 253.256 17.3414C254.786 17.8244 256.276 18.5309 257.505 19.5847C258.133 20.0996 258.623 20.7862 258.916 21.5446C259.212 22.299 259.283 23.1293 259.184 23.9276Z" fill="black"/>
<path d="M276.601 26.7345C274.151 26.7345 271.973 25.9482 270.527 24.5232C268.223 22.2479 267.48 18.9229 268.95 15.9691C269.396 15.075 270.029 14.2766 270.839 13.6899C271.661 13.0911 272.649 12.7917 273.803 12.7917C274.87 12.7917 275.858 13.0392 276.767 13.5342C276.775 13.5382 276.787 13.5422 276.795 13.5501C278.368 14.4163 279.3 16.1287 279.3 17.941V18.6954C279.3 20.0366 279.031 21.1822 278.498 22.1282C277.964 23.0742 277.273 23.8127 276.419 24.3356C276.214 24.4593 276.008 24.5711 275.795 24.6669C276.297 24.7108 276.818 24.7148 277.356 24.6749C279.881 24.4793 282.446 23.3816 284.798 21.5494V7.9419H279.3V10.4327C278.49 9.49864 277.482 8.75619 276.269 8.20136C275.056 7.64652 273.858 7.37109 272.677 7.37109C270.799 7.37109 269.092 7.8461 267.547 8.79212C266.001 9.73813 264.776 11.0873 263.867 12.8356C262.958 14.584 262.504 16.6836 262.504 19.1305C262.504 21.5773 262.95 23.665 263.848 25.3854C264.741 27.1058 265.934 28.419 267.42 29.3211C268.906 30.2232 270.531 30.6783 272.289 30.6783C273.906 30.6783 275.32 30.2472 276.534 29.389C277.696 28.5667 278.589 27.5848 279.221 26.4511C278.656 26.5709 278.087 26.6547 277.518 26.6986C277.21 26.7226 276.901 26.7345 276.601 26.7345Z" fill="black"/>
<path d="M276.601 26.7339C275.005 26.7339 273.388 26.4066 271.981 25.6203C270.575 24.8379 269.468 23.5566 268.804 22.0837C268.14 20.6108 267.982 18.9023 268.405 17.3376C268.824 15.7849 269.737 14.3119 271.12 13.4458C271.812 13.0187 272.614 12.7991 273.416 12.7472C274.222 12.6953 275.036 12.7871 275.807 13.0426C276.57 13.2981 277.305 13.6932 277.886 14.272C278.467 14.8468 278.898 15.5733 279.147 16.3557C279.269 16.7468 279.352 17.154 279.38 17.5651C279.403 17.9803 279.396 18.3754 279.399 18.7826C279.396 19.5969 279.293 20.4192 279.032 21.2015C278.498 22.7543 277.356 24.1074 275.854 24.79L275.811 24.5305C276.609 24.5984 277.412 24.5505 278.202 24.4228C278.992 24.295 279.767 24.0755 280.522 23.7961C282.024 23.2293 283.423 22.399 284.695 21.4091L284.628 21.5488L284.604 7.9413L284.802 8.14088L279.305 8.1289L279.49 7.9413L279.486 10.4321V10.923L279.166 10.5558C278.494 9.77745 277.672 9.13479 276.763 8.64781C275.854 8.16083 274.874 7.80159 273.867 7.64192C271.843 7.35053 269.705 7.74171 267.907 8.75559C266.093 9.75749 264.67 11.3981 263.781 13.2861C262.888 15.1781 262.572 17.3097 262.595 19.4053C262.611 21.5009 262.975 23.6324 263.967 25.4925C264.457 26.4186 265.069 27.2848 265.812 28.0232C266.551 28.7657 267.429 29.3644 268.373 29.8035C269.318 30.2466 270.341 30.522 271.381 30.6178C272.416 30.7136 273.479 30.6617 274.483 30.3663C275.491 30.0829 276.412 29.54 277.21 28.8575C278.012 28.1829 278.708 27.3726 279.222 26.4505L279.226 26.4585C278.795 26.5503 278.36 26.6182 277.925 26.6661C277.483 26.718 277.04 26.714 276.601 26.7339ZM276.601 26.7339C277.04 26.71 277.479 26.714 277.917 26.6581C278.352 26.6102 278.787 26.5383 279.218 26.4465L279.23 26.4425L279.226 26.4505C278.712 27.3726 278.024 28.1909 277.218 28.8695C276.424 29.552 275.499 30.1029 274.487 30.3903C273.479 30.6896 272.412 30.7455 271.373 30.6537C270.329 30.5579 269.298 30.2865 268.346 29.8434C267.393 29.4003 266.504 28.8056 265.753 28.0671C264.994 27.3327 264.37 26.4625 263.868 25.5324C262.848 23.6644 262.461 21.5089 262.425 19.3933C262.386 17.2777 262.678 15.1143 263.575 13.1703C264.465 11.2384 265.907 9.53795 267.769 8.48416C269.614 7.42238 271.808 6.98729 273.922 7.28667C274.977 7.45032 275.993 7.82155 276.933 8.3205C277.874 8.81945 278.736 9.49005 279.443 10.3004L279.123 10.4201L279.119 7.92932V7.74171H279.305L284.802 7.72974H285V7.92932L284.976 21.5368V21.6246L284.909 21.6765C283.608 22.6784 282.178 23.5286 280.633 24.0915C279.862 24.3709 279.064 24.5864 278.249 24.7102C277.439 24.8339 276.609 24.8778 275.791 24.798L275.27 24.7461L275.748 24.5345C277.182 23.9039 278.301 22.6106 278.826 21.1217C279.083 20.3713 279.194 19.5729 279.206 18.7746C279.206 18.3754 279.218 17.9643 279.198 17.5691C279.174 17.174 279.099 16.7828 278.985 16.4036C278.751 15.6452 278.344 14.9426 277.787 14.3798C277.23 13.813 276.522 13.4218 275.775 13.1663C275.025 12.9109 274.226 12.8111 273.436 12.855C272.645 12.8949 271.859 13.1065 271.175 13.5176C270.495 13.9327 269.918 14.5075 269.464 15.1662C269.009 15.8248 268.685 16.5752 268.468 17.3456C268.041 18.8983 268.191 20.5948 268.847 22.0637C269.504 23.5286 270.602 24.8139 272.001 25.5963C273.392 26.3946 275.009 26.7259 276.601 26.7339Z" fill="black"/>
<path d="M279.304 30.023H284.801V24.0355C283.038 25.2091 281.177 26.0273 279.304 26.4345V30.023Z" fill="black"/>
<path d="M279.304 30.023L282.09 29.9312L284.801 29.8673L284.643 30.027C284.624 29.0291 284.628 28.0311 284.616 27.0332C284.612 26.0353 284.596 25.0374 284.608 24.0395L284.904 24.1992C284.054 24.754 283.157 25.245 282.229 25.6521C281.296 26.0593 280.32 26.3547 279.328 26.5542L279.419 26.4385C279.411 27.0213 279.391 27.608 279.363 28.2068L279.304 30.023ZM279.304 30.023L279.241 28.2547C279.217 27.6559 279.197 27.0452 279.186 26.4345V26.3427L279.28 26.3187C280.253 26.0872 281.185 25.7399 282.094 25.3328C283.003 24.9217 283.873 24.4307 284.699 23.8719L284.991 23.6763L284.995 24.0355C285.007 25.0334 284.991 26.0313 284.987 27.0292C284.979 28.0272 284.979 29.0251 284.959 30.023L284.956 30.1826L284.801 30.1786L282.015 30.1148L279.304 30.023Z" fill="black"/>
<path d="M111.883 10.788C111.891 10.78 111.899 10.7719 111.903 10.7639C111.895 10.7398 111.887 10.7156 111.883 10.6915V10.788Z" fill="black"/>
<path d="M111.883 10.7873C111.899 10.7593 111.879 10.7274 111.855 10.7234L111.844 10.7793L111.689 10.7474L112.077 10.6875C112.045 10.6715 112.002 10.6636 111.958 10.6795C111.923 10.6955 111.895 10.7394 111.883 10.7873ZM111.883 10.7873C111.875 10.8033 111.844 10.8112 111.804 10.7953C111.765 10.7793 111.717 10.7354 111.686 10.6875L112.073 10.6276L111.962 10.7394L111.95 10.7953C111.915 10.8152 111.879 10.7993 111.883 10.7873Z" fill="black"/>
<path d="M138.966 11.4973C138.231 10.1361 137.255 9.11026 136.046 8.41572C134.832 7.72117 133.493 7.3739 132.018 7.3739C130.489 7.3739 129.145 7.79701 127.991 8.63925C127.454 9.03442 126.948 9.46951 126.47 9.94452C126.956 11.1141 127.355 12.4672 127.659 14.012C127.738 13.9362 127.821 13.8563 127.9 13.7845C128.592 13.1777 129.414 12.8744 130.366 12.8744C131.607 12.8744 132.611 13.2456 133.374 13.9841C134.137 14.7225 134.52 15.8482 134.52 17.357L134.564 30.3538H140.061V16.6026C140.069 14.5549 139.701 12.8544 138.966 11.4973Z" fill="black"/>
<path d="M138.966 11.4978C138.374 10.4081 137.56 9.43412 136.536 8.73958C135.516 8.04503 134.331 7.60994 133.113 7.46624C131.896 7.32255 130.635 7.41436 129.497 7.87339C128.351 8.31647 127.399 9.14273 126.529 10.0049L126.549 9.91312C127.106 11.2224 127.49 12.5955 127.782 13.9886L127.584 13.9247C127.92 13.5854 128.327 13.2741 128.774 13.0745C129.225 12.8669 129.715 12.7592 130.205 12.7352C131.173 12.6953 132.189 12.8869 133.015 13.4657C133.422 13.7491 133.785 14.1123 134.046 14.5434C134.307 14.9745 134.477 15.4535 134.576 15.9365C134.678 16.4195 134.714 16.9145 134.714 17.4014L134.722 18.8424C134.761 22.6784 134.734 26.5183 134.742 30.3543L134.576 30.1867L140.073 30.2346L139.954 30.3543L140.037 20.8382C140.045 19.2536 140.061 17.6649 140.049 16.0802C139.998 14.5035 139.717 12.8989 138.966 11.4978ZM138.966 11.4978C139.729 12.8949 140.022 14.4995 140.077 16.0802C140.101 17.6649 140.089 19.2536 140.105 20.8382L140.188 30.3543V30.4741H140.065L134.568 30.522H134.402V30.3503C134.386 26.5104 134.331 22.6744 134.343 18.8344V17.3935C134.343 16.9224 134.315 16.4554 134.22 16.0004C134.129 15.5453 133.975 15.1062 133.742 14.7151C133.509 14.3239 133.189 13.9966 132.813 13.7331C132.066 13.2022 131.129 12.9987 130.205 13.0186C129.28 13.0346 128.399 13.4218 127.735 14.0924L127.577 14.252L127.533 14.0285C127.268 12.6434 126.913 11.2743 126.383 9.97299L126.363 9.9211L126.403 9.88119C127.296 9.02698 128.272 8.2047 129.45 7.7736C130.616 7.33053 131.884 7.26267 133.106 7.41036C134.331 7.56604 135.52 8.00911 136.536 8.71563C137.571 9.42215 138.382 10.4041 138.966 11.4978Z" fill="black"/>
<path d="M124.961 11.717C124.349 10.312 123.301 9.18232 122.06 8.45584C120.82 7.73336 119.432 7.37012 117.903 7.37012C116.433 7.37012 115.223 7.72537 114.287 8.43588C114.002 8.65143 113.733 8.87496 113.477 9.10648C113.915 10.3199 114.267 11.721 114.532 13.2897C115.073 13.0143 115.662 12.8746 116.302 12.8746C117.516 12.8746 118.504 13.2458 119.266 13.9843C120.029 14.7227 120.412 15.8484 120.412 17.3572L120.456 30.354H125.953C125.953 28.9888 125.953 27.6277 125.953 26.2625C125.953 23.8276 125.953 21.3887 125.953 18.9538C125.953 17.6685 126.028 16.3752 125.918 15.0939C125.819 13.9204 125.424 12.7828 124.961 11.717Z" fill="black"/>
<path d="M124.961 11.7173C124.503 10.6675 123.776 9.74147 122.883 9.03495C121.989 8.32843 120.926 7.84944 119.824 7.60196C118.717 7.36246 117.559 7.33052 116.453 7.55006C115.899 7.66183 115.362 7.85343 114.872 8.12885C114.378 8.40028 113.971 8.80743 113.528 9.16269L113.552 9.07886C114.054 10.436 114.394 11.8491 114.65 13.2701L114.484 13.1863C115.31 12.7432 116.283 12.6634 117.188 12.8031C118.105 12.9388 118.99 13.3898 119.614 14.1083C120.239 14.8388 120.499 15.8008 120.571 16.7189C120.61 17.1859 120.594 17.6409 120.602 18.096L120.61 19.4571C120.622 21.2733 120.638 23.0895 120.63 24.9057V30.3543L120.46 30.1827L125.957 30.2306L125.835 30.3543L125.922 20.962L125.965 16.2678C125.953 15.4854 125.914 14.6991 125.724 13.9407C125.542 13.1703 125.27 12.4358 124.961 11.7173ZM124.961 11.7173C125.274 12.4318 125.554 13.1663 125.74 13.9287C125.934 14.6911 125.981 15.4775 125.997 16.2598C126.013 17.0422 125.989 17.8245 125.985 18.6069L125.997 20.954L126.084 30.3463V30.4701H125.957L120.46 30.518H120.29V30.3463L120.25 24.8977C120.235 23.0815 120.235 21.2653 120.235 19.4491V18.088C120.231 17.6329 120.247 17.1779 120.215 16.7388C120.152 15.8607 119.915 14.9745 119.357 14.3159C118.804 13.6533 117.998 13.2182 117.14 13.0745C116.279 12.9268 115.37 12.9867 114.587 13.3858L114.445 13.4577L114.417 13.298C114.188 11.881 113.876 10.4759 113.406 9.12277L113.386 9.07886L113.425 9.04693C113.876 8.69566 114.295 8.29251 114.808 8.02108C115.314 7.74565 115.868 7.56603 116.429 7.45826C116.99 7.35048 117.567 7.32653 118.136 7.3425C118.705 7.35847 119.274 7.42632 119.832 7.55406C120.942 7.80952 122.001 8.30448 122.894 9.01499C123.788 9.7295 124.507 10.6635 124.961 11.7173Z" fill="black"/>
<path d="M111.884 10.7877V10.6879C111.544 9.56622 111.157 8.6681 110.746 7.94562H106.387V30.3467H111.884V15.7533C111.888 15.7493 111.888 15.7453 111.892 15.7413C112.422 15.0348 112.655 14.1406 112.493 13.2665C112.323 12.3284 112.125 11.4982 111.904 10.7597C111.9 10.7717 111.892 10.7797 111.884 10.7877Z" fill="black"/>
<path d="M111.883 10.7873V10.6875C111.579 9.74548 111.204 8.82341 110.706 7.9692L110.745 7.99315L106.386 8.04903L106.489 7.94525C106.513 11.6774 106.56 15.4136 106.56 19.1458L106.576 30.3463L106.382 30.1507L111.879 30.1667L111.702 30.3463C111.706 27.9154 111.713 25.4805 111.737 23.0496L111.804 15.7529V15.725L111.82 15.705C112.342 15.0384 112.591 14.1483 112.453 13.302C112.31 12.4478 112.132 11.5936 111.899 10.7594L111.883 10.7873ZM111.883 10.7873L111.903 10.7633C112.164 11.5936 112.373 12.4358 112.535 13.294C112.701 14.1642 112.468 15.0943 111.939 15.8048L111.955 15.7569L112.022 23.0536C112.045 25.4845 112.053 27.9194 112.057 30.3503V30.5299H111.879L106.382 30.5459H106.188V30.3503L106.208 19.1498C106.208 15.4176 106.26 11.6814 106.279 7.94924V7.84546H106.382L110.741 7.90134H110.769L110.781 7.92529C111.263 8.79946 111.607 9.73749 111.879 10.6915L111.883 10.7873Z" fill="black"/>
</svg>
